<svg width="21" height="25" viewBox="0 0 21 25" fill="none" xmlns="http://www.w3.org/2000/svg">
<path fill-rule="evenodd" clip-rule="evenodd" d="M8.44493 0.341797C8.51329 0.341797 8.6793 0.395508 8.81602 0.463867C8.94786 0.527344 10.8082 1.3623 12.942 2.31934C15.3639 3.40332 16.858 4.09668 16.9117 4.16504C16.9606 4.22363 16.9996 4.32129 16.9947 4.38477C16.9947 4.44336 16.8141 4.89258 16.5992 5.38574C16.3795 5.87402 16.0914 6.50879 15.7252 7.32422L15.9303 7.44141C16.0475 7.50488 16.2184 7.6416 16.3111 7.74414C16.4088 7.85156 16.5406 8.04688 16.6041 8.17871C16.7164 8.39844 16.7262 8.49121 16.7506 9.86328H17.4928C18.0055 9.86328 18.318 9.88281 18.484 9.93164C18.6158 9.9707 18.8209 10.0732 18.9332 10.1514C19.0504 10.2344 19.2018 10.4053 19.4117 10.7666L19.4606 14.1357L20.1344 14.1602C20.7838 14.1846 20.818 14.1895 20.9059 14.3066C20.9986 14.4238 21.0035 14.5215 20.9986 18.7988L20.8522 18.9209C20.7106 19.0381 20.6764 19.043 19.4361 19.043V23.6572L19.3043 23.9209C19.2262 24.0674 19.0992 24.2383 19.0211 24.3066C18.943 24.3701 18.7721 24.4775 18.4107 24.6582H1.76036L1.47715 24.5166C1.32579 24.4434 1.13536 24.3066 1.05723 24.2139C0.979108 24.1211 0.866803 23.9502 0.813092 23.8281C0.710553 23.6084 0.710554 23.5986 0.695905 16.2598C0.686139 10.9229 0.695905 8.83301 0.734968 8.61816C0.769147 8.45703 0.852155 8.21777 0.920514 8.08594C0.993757 7.9541 1.15001 7.75879 1.27208 7.65137C1.39415 7.53906 1.61387 7.39746 1.76036 7.3291C1.99473 7.22168 2.12169 7.20215 3.3961 7.15332L4.77794 4.07715C5.53966 2.38281 6.19395 0.97168 6.2379 0.9375C6.28184 0.908203 6.37462 0.878906 6.44298 0.878906C6.51133 0.878906 6.8336 1.00098 7.7418 1.40137L7.92735 0.981445C8.03477 0.751953 8.16173 0.512695 8.22032 0.454102C8.27403 0.390625 8.37657 0.341797 8.44493 0.341797ZM8.50352 1.55762C8.4254 1.7334 8.31309 1.99219 8.24962 2.12402C8.19102 2.26074 7.39512 4.02832 6.48692 6.05469C5.57383 8.08105 4.817 9.77051 4.80723 9.80469C4.79258 9.84863 4.88536 9.86328 5.16368 9.86328L5.54454 9.8584C7.89805 4.60449 8.35704 3.63281 8.4254 3.60352C8.47911 3.57422 8.60118 3.56934 8.69395 3.58398C8.78673 3.60352 8.97227 3.62793 9.10899 3.64258C9.26524 3.66211 9.42149 3.64258 9.54844 3.59375C9.65587 3.55469 9.80723 3.44238 9.89024 3.34961C9.96837 3.25684 10.0856 3.11035 10.1441 3.02734C10.2272 2.91504 10.2955 2.88086 10.4127 2.88086C10.5152 2.88086 11.1549 3.13965 12.1315 3.57422C13.2984 4.10156 13.7037 4.30176 13.7623 4.39453C13.8307 4.50684 13.8307 4.5459 13.7574 4.83398C13.7037 5.04883 13.6891 5.20508 13.7184 5.32227C13.7379 5.41504 13.7916 5.56641 13.8356 5.6543C13.8844 5.7373 14.0455 5.90332 14.1969 6.02051C14.3824 6.15723 14.485 6.26953 14.4947 6.34766C14.5045 6.4209 14.402 6.72363 14.2457 7.08008C14.0992 7.41699 13.7574 8.17871 13.484 8.7793L12.9908 9.86328L13.7477 9.86816C15.5787 5.7959 16.0963 4.59961 16.0768 4.58008C16.0572 4.56055 14.4947 3.85254 12.6002 2.99805C10.7057 2.14844 9.04063 1.40625 8.90391 1.34277L8.64512 1.23047L8.50352 1.55762ZM4.76329 5.95215C3.80137 8.08105 3.02012 9.83398 3.02501 9.84375C3.02501 9.8584 3.23497 9.86816 3.48399 9.86816H3.93321C6.61387 3.90625 7.40001 2.1582 7.40977 2.13867C7.41954 2.11914 7.29747 2.0459 7.1461 1.97754C6.98985 1.9043 6.81407 1.83105 6.75059 1.80664C6.65782 1.76758 6.63341 1.78223 6.57481 1.91895C6.54063 2.00684 5.7252 3.82324 4.76329 5.95215ZM9.91465 4.26758C9.64122 4.4043 9.54844 4.42383 9.20665 4.42383H8.81114C6.94102 8.58398 6.39903 9.80957 6.39903 9.8291C6.39903 9.84863 6.62852 9.86816 6.91173 9.86816C7.35606 9.86816 7.4293 9.85352 7.45372 9.78027C7.47325 9.73145 7.53184 9.59473 7.58555 9.47754C7.64415 9.35547 7.78575 9.16016 7.89805 9.04785C8.01524 8.93555 8.23497 8.7793 8.39122 8.70605C8.62559 8.59375 8.7379 8.57422 9.08458 8.57422C9.45567 8.57422 9.53868 8.58887 9.817 8.72559C10.0221 8.82324 10.2125 8.96484 10.3443 9.11621C10.4615 9.24805 10.6031 9.46777 10.6617 9.60938L10.7691 9.86816L12.1803 9.84375L13.6256 6.59668C13.3082 6.23535 13.1617 6.01074 13.0934 5.86426C12.9908 5.64453 12.9713 5.51758 12.9664 5.19043V4.79004C11.1891 3.99414 10.6471 3.75977 10.6227 3.75977C10.5934 3.75977 10.4957 3.84277 10.4029 3.93555C10.3102 4.0332 10.0904 4.17969 9.91465 4.26758ZM1.76524 8.22266C1.70176 8.28125 1.60899 8.41797 1.56016 8.52539C1.51133 8.63281 1.46739 8.79883 1.46739 8.90137C1.46739 9.00391 1.50157 9.16504 1.54551 9.26758C1.58458 9.37012 1.67735 9.51172 1.75059 9.58496C1.82383 9.6582 1.94591 9.74609 2.01915 9.78027C2.10704 9.81934 2.17051 9.82422 2.19493 9.79492C2.21934 9.76562 2.38536 9.41406 2.56602 9.01367C2.74669 8.6084 2.92735 8.20801 2.96153 8.12012L3.02989 7.96387C2.31212 7.96387 2.13145 7.98828 2.02891 8.03711C1.95079 8.08106 1.82872 8.16406 1.76524 8.22266ZM14.6217 9.80469C14.607 9.85352 14.7682 9.86816 15.3102 9.86816H16.0182C16.0182 9.05273 15.9938 8.73047 15.9645 8.62305C15.9352 8.51562 15.8277 8.34473 15.7301 8.24219C15.6324 8.14453 15.5201 8.06152 15.4762 8.06152C15.4176 8.06152 15.2857 8.30566 15.0172 8.90137C14.8121 9.36523 14.6315 9.77051 14.6217 9.80469ZM8.34239 9.6875C8.29356 9.76074 8.2545 9.8291 8.2545 9.84375C8.2545 9.85352 8.64512 9.86816 9.12364 9.86816H9.9879C9.79258 9.61914 9.6461 9.49707 9.54356 9.43848C9.41173 9.36523 9.27501 9.33105 9.08458 9.33105C8.88926 9.33105 8.76231 9.36035 8.62071 9.44336C8.51329 9.50684 8.38633 9.61914 8.34239 9.6875ZM1.46251 16.8994C1.46739 22.6123 1.47716 23.457 1.54063 23.5889C1.57969 23.667 1.6627 23.7646 1.72618 23.8086C1.81895 23.8721 2.81016 23.8818 10.0514 23.8818C17.2535 23.8818 18.2838 23.8721 18.4107 23.8086C18.4938 23.7646 18.5914 23.667 18.6305 23.5889C18.694 23.4619 18.7037 23.1006 18.7037 21.2451V19.0479C16.8092 19.043 16.4479 19.0234 16.2135 18.9697C16.0377 18.9258 15.774 18.8281 15.6275 18.75C15.4811 18.6719 15.2565 18.5059 15.1295 18.3887C15.0025 18.2666 14.817 18.0518 14.7242 17.9102C14.6315 17.7686 14.5045 17.5098 14.4508 17.3389C14.3873 17.124 14.3531 16.8848 14.3531 16.6064C14.3531 16.3232 14.3873 16.084 14.4508 15.874C14.5045 15.6982 14.6217 15.4443 14.7047 15.3125C14.7877 15.1758 14.9244 14.9902 15.0123 14.9023C15.0953 14.8096 15.2955 14.6484 15.4566 14.5459C15.6178 14.4385 15.8912 14.3115 16.067 14.2578C16.3453 14.1748 16.526 14.1602 17.5465 14.1602L18.7037 14.165C18.7037 11.3574 18.694 11.0596 18.6305 10.9424C18.5914 10.8594 18.5084 10.7666 18.4498 10.7324C18.3619 10.6836 16.5797 10.6641 10.1832 10.6494L2.02891 10.625L1.45762 10.3613L1.46251 16.8994ZM15.9205 15.1416C15.8033 15.2148 15.6275 15.3564 15.5348 15.459C15.442 15.5664 15.3102 15.7715 15.2418 15.918C15.1393 16.1426 15.1149 16.2598 15.1149 16.6016C15.1149 16.9531 15.1393 17.0605 15.2467 17.2852C15.3199 17.4316 15.4713 17.6514 15.5885 17.7686C15.7057 17.8857 15.9107 18.0371 16.0426 18.1104L16.2867 18.2373L20.2174 18.2617V14.8926C17.1461 14.8975 16.5113 14.917 16.36 14.9561C16.2428 14.9902 16.0426 15.0732 15.9205 15.1416ZM16.6969 15.5273C16.7945 15.5273 16.9557 15.5518 17.0582 15.5762C17.1559 15.6055 17.3219 15.6982 17.4195 15.7861C17.5123 15.8691 17.6295 16.0107 17.6686 16.0889C17.7125 16.1719 17.7613 16.3135 17.7809 16.4062C17.8053 16.499 17.8004 16.6748 17.776 16.7969C17.7516 16.9189 17.6686 17.1045 17.5953 17.2119C17.5074 17.3291 17.3609 17.4512 17.2145 17.5244C17.0517 17.6025 16.8889 17.6416 16.7262 17.6416C16.5895 17.6416 16.399 17.5977 16.2867 17.5391C16.1793 17.4902 16.0231 17.3633 15.9352 17.2656C15.8473 17.168 15.7496 16.9971 15.7203 16.8848C15.691 16.7676 15.6813 16.5771 15.6959 16.4551C15.7106 16.3135 15.7789 16.1572 15.8815 16.0156C15.9693 15.8984 16.15 15.7373 16.2818 15.6641C16.4234 15.5859 16.5943 15.5273 16.6969 15.5273ZM16.4527 16.5918C16.4527 16.665 16.4967 16.7627 16.5406 16.8066C16.5895 16.8555 16.6774 16.8945 16.7408 16.8945C16.7994 16.8945 16.8922 16.8506 16.9459 16.7969C16.9996 16.7432 17.0436 16.6504 17.0484 16.5918C17.0484 16.5283 17.0094 16.4404 16.9606 16.3965C16.9117 16.3477 16.8141 16.3086 16.7408 16.3086C16.6725 16.3086 16.5748 16.3428 16.5309 16.3867C16.4869 16.4258 16.4527 16.5234 16.4527 16.5918Z" fill="#1E1E1E"/>
</svg>
