<svg width="22" height="22" viewBox="0 0 22 22" fill="none" xmlns="http://www.w3.org/2000/svg">
<path d="M1.14258 1.125H1.9956C2.53145 1.125 2.99096 1.50745 3.08824 2.03439L5.58702 15.5694H17.6946C18.212 15.5694 18.6609 15.2123 18.7772 14.7082L20.8285 5.81929C20.9892 5.12305 20.4604 4.45833 19.7459 4.45833H3.92036M17.8092 21.125C17.1956 21.125 16.6981 20.6275 16.6981 20.0139C16.6981 19.4002 17.1956 18.9028 17.8092 18.9028C18.4229 18.9028 18.9204 19.4002 18.9204 20.0139C18.9204 20.6275 18.4229 21.125 17.8092 21.125ZM6.69813 21.125C6.08448 21.125 5.58702 20.6275 5.58702 20.0139C5.58702 19.4002 6.08448 18.9028 6.69813 18.9028C7.31178 18.9028 7.80925 19.4002 7.80925 20.0139C7.80925 20.6275 7.31178 21.125 6.69813 21.125Z" stroke="#1E1E1E" stroke-width="1.25" stroke-linecap="round" stroke-linejoin="round"/>
</svg>
