<svg width="64" height="64" viewBox="0 0 64 64" fill="none" xmlns="http://www.w3.org/2000/svg">
<path d="M2.41699 1.98926H4.97695C6.58507 1.98926 7.9641 3.137 8.25606 4.7184L15.755 45.3379H52.0906C53.6433 45.3379 54.9905 44.2662 55.3397 42.7532L61.4957 16.0771C61.9779 13.9876 60.391 11.9928 58.2466 11.9928H10.7533M52.4347 62.0105C50.5931 62.0105 49.1002 60.5176 49.1002 58.676C49.1002 56.8344 50.5931 55.3415 52.4347 55.3415C54.2763 55.3415 55.7692 56.8344 55.7692 58.676C55.7692 60.5176 54.2763 62.0105 52.4347 62.0105ZM19.0896 62.0105C17.248 62.0105 15.755 60.5176 15.755 58.676C15.755 56.8344 17.248 55.3415 19.0896 55.3415C20.9312 55.3415 22.4241 56.8344 22.4241 58.676C22.4241 60.5176 20.9312 62.0105 19.0896 62.0105Z" stroke="#1E1E1E" stroke-width="3" stroke-linecap="round" stroke-linejoin="round"/>
</svg>
