<svg width="14" height="14" viewBox="0 0 14 14" fill="none" xmlns="http://www.w3.org/2000/svg">
<path d="M8.83168 4.82218L7.08629 1.03818C6.96311 0.771129 6.58357 0.771129 6.4604 1.03818L4.715 4.82218C4.6648 4.93102 4.56166 5.00596 4.44263 5.02007L0.304474 5.51071C0.0124348 5.54534 -0.104849 5.9063 0.111063 6.10597L3.17051 8.93526C3.25851 9.01664 3.2979 9.13789 3.27455 9.25545L2.46242 13.3427C2.4051 13.6311 2.71216 13.8542 2.96877 13.7106L6.60501 11.6752C6.7096 11.6166 6.83709 11.6166 6.94168 11.6752L10.5779 13.7106C10.8345 13.8542 11.1416 13.6311 11.0843 13.3427L10.2721 9.25545C10.2488 9.13789 10.2882 9.01664 10.3762 8.93526L13.4356 6.10597C13.6515 5.9063 13.5342 5.54534 13.2422 5.51071L9.10405 5.02007C8.98503 5.00596 8.88188 4.93102 8.83168 4.82218Z" fill="#BD0017"/>
</svg>
