<svg width="32" height="32" viewBox="0 0 32 32" fill="none" xmlns="http://www.w3.org/2000/svg">
<path d="M8.96939 24.9659C8.12583 24.9659 7.31894 24.8191 6.54873 24.5257C5.77852 24.214 5.12751 23.7739 4.5957 23.2054L5.77853 21.6099C6.25532 22.0684 6.75046 22.4168 7.26393 22.6552C7.79574 22.8936 8.29088 23.0128 8.74933 23.0128C9.28115 23.0128 9.74877 22.912 10.1522 22.7102C10.5557 22.4902 10.7574 22.1326 10.7574 21.6374C10.7574 21.234 10.6198 20.9223 10.3448 20.7022C10.088 20.4821 9.75794 20.2988 9.3545 20.152C8.95105 20.0053 8.5201 19.8678 8.06165 19.7394C7.10805 19.4277 6.37452 18.9876 5.86105 18.4191C5.36591 17.8322 5.11835 17.1446 5.11835 16.356C5.11835 15.7508 5.26505 15.1824 5.55847 14.6505C5.87022 14.1004 6.33784 13.6603 6.96135 13.3302C7.58485 12.9818 8.35506 12.8075 9.27198 12.8075C10.0789 12.8075 10.8032 12.9084 11.4451 13.1101C12.0869 13.2935 12.6829 13.6144 13.2331 14.0729L12.1603 15.7508C11.8302 15.4208 11.4359 15.1732 10.9774 15.0081C10.5373 14.8248 10.1339 14.7239 9.76711 14.7056C9.27198 14.7056 8.84103 14.8248 8.47426 15.0632C8.10749 15.2832 7.92411 15.5858 7.92411 15.9709C7.92411 16.356 8.05248 16.6678 8.30921 16.9062C8.56595 17.1262 8.89604 17.3096 9.29948 17.4563C9.72126 17.5847 10.143 17.7222 10.5648 17.8689C11.4084 18.144 12.1052 18.5199 12.6554 18.9967C13.2239 19.4735 13.5081 20.1704 13.5081 21.0873C13.5081 21.7842 13.3431 22.426 13.013 23.0128C12.6829 23.5996 12.1786 24.0764 11.5001 24.4432C10.8399 24.7916 9.99634 24.9659 8.96939 24.9659Z" fill="#FAA818"/>
<path d="M20.0061 24.9934C18.9242 24.9934 17.9522 24.7458 17.0903 24.2507C16.2284 23.7372 15.5499 23.0128 15.0548 22.0776C14.5596 21.1423 14.3121 20.0512 14.3121 18.8042C14.3121 17.5205 14.578 16.4294 15.1098 15.5308C15.6416 14.6322 16.3568 13.9445 17.2554 13.4677C18.1723 12.9909 19.1992 12.7525 20.3362 12.7525C21.2165 12.7525 22.0508 12.9359 22.8394 13.3027C23.6463 13.6511 24.279 14.1462 24.7374 14.7881L24.6274 15.7508V3.34497H27.4056V24.7183H24.5999V21.9675L24.9025 22.7102C24.3523 23.3704 23.6555 23.9206 22.8119 24.3607C21.9867 24.7825 21.0514 24.9934 20.0061 24.9934ZM20.8589 22.6552C21.8308 22.6552 22.6377 22.4077 23.2795 21.9125C23.9397 21.3991 24.3798 20.7205 24.5999 19.877V17.5938C24.3982 16.8236 23.9489 16.191 23.252 15.6958C22.5735 15.2007 21.7758 14.9531 20.8589 14.9531C20.1987 14.9531 19.5844 15.1182 19.0159 15.4483C18.4474 15.76 17.9889 16.2093 17.6405 16.7961C17.3104 17.3646 17.1454 18.0248 17.1454 18.7767C17.1454 19.4919 17.3104 20.1429 17.6405 20.7297C17.9889 21.3165 18.4474 21.7842 19.0159 22.1326C19.5844 22.481 20.1987 22.6552 20.8589 22.6552Z" fill="#FAA818"/>
</svg>
