<svg width="244" height="80" viewBox="0 0 244 80" fill="none" xmlns="http://www.w3.org/2000/svg">
<path d="M74.2648 39.9996C74.2648 60.5072 57.6401 77.132 37.1324 77.132C16.6247 77.132 0 60.5072 0 39.9996C0 19.4919 16.6247 2.86719 37.1324 2.86719C57.6401 2.86719 74.2648 19.4919 74.2648 39.9996Z" fill="#BD0017"/>
<path fill-rule="evenodd" clip-rule="evenodd" d="M34.4616 10.7807C34.5322 10.7763 34.669 10.7984 34.7572 10.8204C34.8543 10.8469 34.9999 10.9396 35.2779 11.2175L35.75 11.1734C36.0147 11.1514 36.6324 11.1293 37.131 11.1293C37.6296 11.1293 38.2473 11.1469 38.9842 11.2175L39.1253 11.0587C39.2048 10.9749 39.3592 10.8734 39.4695 10.8337C39.6063 10.7851 39.7298 10.7719 39.8666 10.794C39.9769 10.8072 40.2946 10.8734 40.5726 10.9352C40.8505 10.9969 41.4021 11.1558 41.7948 11.2881C42.1919 11.4205 42.589 11.5617 42.6772 11.6102C42.7699 11.6543 42.8978 11.7514 42.964 11.8308C43.039 11.9103 43.1052 12.0603 43.1361 12.2015C43.1802 12.4221 43.1934 12.4353 43.4538 12.5721C43.6038 12.6515 43.8862 12.8148 44.0803 12.9295C44.42 13.1413 44.4377 13.1457 44.5745 13.0883C44.6539 13.053 44.8039 13.0266 44.9054 13.0266C45.0201 13.0266 45.1701 13.0663 45.2804 13.1236C45.3819 13.181 45.6511 13.3884 45.8761 13.5869C46.1011 13.7855 46.4541 14.1384 46.6615 14.3723C46.8688 14.6061 47.16 14.9679 47.3101 15.1797C47.4601 15.3915 47.6851 15.7533 47.8042 15.9828C47.9234 16.2122 48.0645 16.5122 48.1175 16.6446C48.1704 16.777 48.2587 17.077 48.3205 17.3064C48.3822 17.5491 48.4263 17.858 48.4263 18.0344C48.4263 18.2065 48.3955 18.4536 48.3558 18.586C48.316 18.7183 48.2278 18.9169 48.1616 19.0272C48.091 19.1375 47.9322 19.3272 47.7998 19.4464C47.6719 19.5699 47.4645 19.7376 47.3454 19.8214C47.2218 19.9052 46.9262 20.0641 46.6835 20.1788C46.4408 20.2935 46.057 20.4524 45.4216 20.6818L45.3069 20.5935C45.2451 20.545 45.1745 20.4435 45.1481 20.3729C45.1172 20.267 45.126 20.2185 45.1878 20.1347C45.2407 20.0729 45.4304 19.9758 45.6908 19.8832C45.9202 19.7993 46.2908 19.6449 46.507 19.5346C46.7232 19.4287 47.0233 19.2434 47.1689 19.1287C47.3145 19.0095 47.4998 18.8154 47.5792 18.6963C47.6586 18.5683 47.7336 18.3918 47.7513 18.2771C47.7645 18.1668 47.7513 17.9197 47.7248 17.7256C47.6983 17.5315 47.6233 17.2226 47.5571 17.0417C47.4954 16.8608 47.3807 16.5828 47.3012 16.424C47.2218 16.2651 47.0188 15.9298 46.8468 15.6739C46.6747 15.418 46.3923 15.0518 46.2114 14.8576C46.0349 14.6635 45.7084 14.337 45.4922 14.134C45.276 13.9311 45.0554 13.7457 45.0069 13.7237C44.9583 13.6972 44.8833 13.6884 44.8392 13.706C44.7995 13.7193 44.698 13.8649 44.6186 14.0325C44.5348 14.1958 44.3715 14.4782 44.2524 14.6591C44.1332 14.84 43.8685 15.1665 43.6611 15.3783C43.4538 15.5945 43.1978 15.8283 43.0875 15.8989C42.9772 15.9695 42.8581 16.0269 42.8228 16.0313C42.7875 16.0313 42.7037 15.9916 42.514 15.8504V14.0987C42.514 12.7486 42.5007 12.325 42.461 12.2721C42.4301 12.2324 42.236 12.1353 42.0286 12.0603C41.8212 11.9809 41.4241 11.8529 41.1462 11.7691C40.8682 11.6896 40.427 11.5749 40.1666 11.5176C39.7431 11.4293 39.6857 11.4249 39.6328 11.4823C39.5975 11.5176 39.5357 11.7558 39.496 12.0117C39.4519 12.2676 39.3504 12.7353 39.271 13.0486C39.1871 13.3619 39.0503 13.8296 38.9577 14.0855C38.8694 14.3414 38.7018 14.7782 38.5782 15.0562C38.4591 15.3342 38.2297 15.7974 38.0664 16.0842C37.9032 16.371 37.6781 16.7328 37.559 16.8873C37.4443 17.0461 37.3031 17.1917 37.2413 17.2182C37.1678 17.2476 37.0942 17.2476 37.0207 17.2182C36.9589 17.1917 36.8177 17.0505 36.7074 16.9005C36.5971 16.7461 36.403 16.4549 36.2839 16.2475C36.1603 16.0401 35.9794 15.7136 35.8824 15.5195C35.7853 15.3253 35.6397 15.0121 35.5603 14.8267C35.4764 14.637 35.4102 14.4208 35.4102 14.3502C35.4102 14.2576 35.4455 14.1914 35.5294 14.1296C35.6 14.0767 35.6926 14.037 35.7412 14.0414C35.7897 14.0414 35.8691 14.0678 35.9177 14.0987C35.9662 14.134 36.0456 14.2576 36.0897 14.3767C36.1339 14.4958 36.2795 14.8091 36.4118 15.0782C36.5442 15.3474 36.7516 15.7357 36.8795 15.9475C37.0075 16.1592 37.1178 16.3357 37.131 16.3357C37.1443 16.3357 37.2899 16.0931 37.4619 15.7974C37.634 15.4974 37.8723 15.0165 37.9958 14.7253C38.1238 14.4341 38.2958 13.9796 38.3841 13.7105C38.4723 13.4413 38.6047 12.9868 38.6709 12.6956C38.7415 12.4044 38.8121 12.1 38.8253 12.025C38.8474 11.9014 38.8386 11.875 38.7503 11.8529C38.6974 11.8397 38.137 11.8176 37.5061 11.8044C36.8751 11.7911 36.1559 11.8 35.9132 11.8176C35.6662 11.8397 35.4455 11.875 35.4279 11.8926C35.4058 11.9103 35.4235 12.122 35.4676 12.3559C35.5426 12.7442 35.5426 12.7927 35.4808 12.8854C35.4411 12.9383 35.3441 12.9957 35.2646 13.0089C35.172 13.0221 35.0882 13.0089 35.022 12.9648C34.969 12.9251 34.9028 12.8104 34.8764 12.7089C34.8499 12.603 34.7881 12.3029 34.744 12.0338C34.6955 11.7647 34.6602 11.5352 34.6602 11.5176C34.6602 11.4955 34.6249 11.4734 34.5807 11.4602C34.541 11.447 34.2586 11.4867 33.9542 11.5529C33.6498 11.6146 33.0762 11.7735 32.6747 11.9058C32.2731 12.0382 31.9202 12.1706 31.8893 12.2015C31.8452 12.2412 31.8319 12.6339 31.8363 14.0325C31.8363 15.7489 31.8319 15.8107 31.7481 15.8945C31.6996 15.943 31.6069 15.996 31.5363 16.0092C31.4481 16.0269 31.373 16.0004 31.2407 15.9077C31.1436 15.8416 30.9053 15.6254 30.7112 15.4312C30.5171 15.2371 30.2479 14.9106 30.1111 14.7032C29.9744 14.4958 29.7979 14.2002 29.7185 14.0414C29.639 13.8825 29.542 13.7193 29.5023 13.6752C29.4625 13.631 29.4184 13.5957 29.3964 13.6001C29.3787 13.6001 29.1625 13.7766 28.911 13.9884C28.6639 14.2046 28.3154 14.5355 28.1389 14.7297C27.9624 14.9194 27.6888 15.2591 27.5344 15.4753C27.3756 15.6915 27.1285 16.1107 26.9829 16.4019C26.8373 16.6931 26.6784 17.0991 26.6211 17.3064C26.5637 17.5315 26.524 17.8227 26.524 18.0389C26.5196 18.361 26.5328 18.4139 26.652 18.6124C26.727 18.7316 26.9079 18.9257 27.0491 19.0404C27.1947 19.1552 27.53 19.3581 27.7991 19.4905C28.0639 19.6229 28.4919 19.7993 28.7478 19.8876C29.0037 19.9758 29.489 20.1126 29.8288 20.1964C30.1685 20.2803 30.7333 20.3994 31.0863 20.4612C31.4392 20.5229 32.0349 20.6112 32.4099 20.6597C32.785 20.7083 33.4821 20.7789 33.9542 20.823C34.6337 20.8848 35.3088 20.898 37.1751 20.898C39.0592 20.898 39.7166 20.8848 40.4402 20.823C40.9388 20.7789 41.6712 20.7038 42.0727 20.6553C42.4742 20.6024 42.9596 20.5362 43.1537 20.5009C43.3479 20.4656 43.5596 20.4391 43.6258 20.4391C43.7082 20.4391 43.7788 20.4803 43.8376 20.5627C43.8906 20.6288 43.9303 20.7215 43.9303 20.77C43.9303 20.8186 43.895 20.9068 43.8509 20.9642C43.7803 21.0524 43.6832 21.0789 43.1317 21.1715C42.7787 21.2289 42.1257 21.3172 41.6756 21.3657C41.2256 21.4142 40.5814 21.4716 40.2416 21.4936C39.9019 21.5201 39.0592 21.5642 38.3664 21.5907C37.281 21.6392 36.9016 21.6348 35.5867 21.5686C34.7484 21.5289 33.7557 21.4672 33.3806 21.4319C33.0056 21.3966 32.3967 21.326 32.0349 21.273C31.6687 21.2245 31.1039 21.1362 30.7774 21.0745C30.4509 21.0127 29.9126 20.898 29.5861 20.8142C29.2596 20.7303 28.7566 20.5847 28.4698 20.4876C28.1874 20.3862 27.7506 20.2053 27.4991 20.0817C27.252 19.9582 26.9299 19.7729 26.7843 19.667C26.6387 19.5655 26.4225 19.3758 26.3078 19.2434C26.1887 19.111 26.0387 18.8948 25.9769 18.7625C25.8886 18.5816 25.8533 18.436 25.8401 18.1889C25.8313 17.9859 25.8577 17.7124 25.9019 17.4829C25.946 17.2755 26.0254 16.9799 26.0784 16.8211C26.1357 16.6622 26.2328 16.4196 26.2946 16.2828C26.3563 16.1416 26.5152 15.8548 26.6431 15.643C26.7667 15.4268 26.9873 15.1047 27.1241 14.9238C27.2608 14.7429 27.5476 14.4076 27.7594 14.1781C27.9756 13.9487 28.3198 13.6222 28.5272 13.4457C28.7345 13.2692 28.9684 13.0971 29.0434 13.0574C29.1272 13.0133 29.2905 12.9824 29.4184 12.9824C29.5464 12.9868 29.7008 13.0133 29.7626 13.0442C29.8641 13.0971 29.8949 13.0883 30.1376 12.9427C30.2832 12.8501 30.5744 12.6868 30.7862 12.5721C31.0951 12.4044 31.1745 12.3427 31.1745 12.2676C31.1745 12.2103 31.2142 12.0867 31.2583 11.9897C31.298 11.8926 31.3951 11.7647 31.4657 11.7029C31.5363 11.6411 31.7613 11.5264 31.9687 11.4426C32.1761 11.3631 32.582 11.2308 32.8732 11.1469C33.1644 11.0631 33.6101 10.9484 33.866 10.891C34.1219 10.8293 34.3866 10.7807 34.4616 10.7807ZM30.4553 13.5163L30.2479 13.6443C30.4641 14.037 30.5965 14.2532 30.6847 14.3723C30.7686 14.4958 30.9142 14.6767 31.0068 14.7826L31.1745 14.9679C31.1745 13.5295 31.1701 13.1148 31.1613 13.1148C31.1568 13.1148 31.0421 13.1766 30.9098 13.2516C30.7774 13.3266 30.5744 13.4457 30.4553 13.5163ZM43.2464 14.8797C43.2861 14.8444 43.4052 14.7032 43.5067 14.5708C43.6082 14.4385 43.7758 14.1914 43.8729 14.0193C43.9744 13.8472 44.045 13.6972 44.0273 13.6796C44.0053 13.6619 43.8244 13.5472 43.617 13.4237C43.4096 13.3001 43.2287 13.203 43.2111 13.203C43.189 13.203 43.1758 13.5957 43.1758 14.0767C43.1714 14.8885 43.1758 14.9415 43.2464 14.8797Z" fill="white"/>
<path d="M17.66 21.4577L19.0863 20.0314L57.5959 58.541L56.1696 59.9673L17.66 21.4577Z" fill="white"/>
<path d="M18.3731 59.2542L16.9468 57.8279L55.4565 19.3183L56.8827 20.7446L18.3731 59.2542Z" fill="white"/>
<path d="M12.6721 51.6351C11.9635 51.6351 11.3388 51.5425 10.798 51.3573C10.2759 51.1721 9.87498 50.9098 9.59527 50.5703C9.31556 50.2308 9.1757 49.8244 9.1757 49.3511V43.6411H11.2456V49.4437C11.2456 49.6803 11.3015 49.881 11.4134 50.0456C11.5253 50.1999 11.6838 50.3182 11.8889 50.4005C12.1127 50.4828 12.3737 50.524 12.6721 50.524C12.9518 50.524 13.1942 50.4828 13.3993 50.4005C13.6231 50.3182 13.7909 50.1999 13.9028 50.0456C14.0147 49.881 14.0706 49.6803 14.0706 49.4437V31.3415C14.0706 31.1152 14.0147 30.9197 13.9028 30.7551C13.7909 30.5905 13.6231 30.467 13.3993 30.3847C13.1942 30.3024 12.9518 30.2612 12.6721 30.2612C12.3737 30.2612 12.1127 30.3024 11.8889 30.3847C11.6838 30.467 11.5253 30.5905 11.4134 30.7551C11.3015 30.9197 11.2456 31.1152 11.2456 31.3415V37.1441H9.1757V31.4341C9.1757 30.9711 9.31556 30.5699 9.59527 30.2304C9.87498 29.8806 10.2759 29.6131 10.798 29.4279C11.3388 29.2427 11.9635 29.1501 12.6721 29.1501C13.3993 29.1501 14.024 29.2427 14.5462 29.4279C15.0683 29.6131 15.4692 29.8806 15.7489 30.2304C16.0473 30.5699 16.1964 30.9711 16.1964 31.4341V49.3511C16.1964 49.8141 16.0473 50.2205 15.7489 50.5703C15.4692 50.9098 15.0683 51.1721 14.5462 51.3573C14.024 51.5425 13.3993 51.6351 12.6721 51.6351ZM14.0706 40.6318H10.7701V39.5515H14.0706V40.6318Z" fill="white"/>
<path d="M57.6232 51.5271L59.6931 40.3386L57.6512 29.2582H59.749L61.3434 39.7831L62.9937 29.2582H65.0915L63.0217 40.4003L65.0635 51.5271H62.9657L61.3993 41.0022L59.7211 51.5271H57.6232Z" fill="white"/>
<path d="M33.8571 64.9661C33.6312 64.9661 33.4335 64.9153 33.2641 64.8136C33.0984 64.7082 32.9704 64.5595 32.8801 64.3675C32.7935 64.1754 32.7502 63.9439 32.7502 63.6728V62.5151H33.1681V63.6841C33.1681 63.8761 33.1963 64.0399 33.2528 64.1754C33.3093 64.3072 33.3883 64.4089 33.49 64.4804C33.5916 64.5482 33.714 64.5821 33.8571 64.5821C34.0001 64.5821 34.1225 64.5463 34.2242 64.4748C34.3296 64.4032 34.4086 64.3016 34.4613 64.1698C34.5178 64.0343 34.5461 63.8724 34.5461 63.6841V61.764C34.5461 61.4553 34.4783 61.2275 34.3427 61.0806C34.2072 60.9338 34.0171 60.8604 33.7724 60.8604H33.4448V60.482H33.7667C33.8985 60.482 34.0152 60.4538 34.1168 60.3973C34.2223 60.3371 34.3032 60.2448 34.3597 60.1206C34.4199 59.9926 34.4501 59.8326 34.4501 59.6405V57.9237C34.4501 57.743 34.4256 57.5924 34.3766 57.4719C34.3277 57.3477 34.258 57.2535 34.1677 57.1895C34.0773 57.1218 33.9681 57.0879 33.8401 57.0879C33.7083 57.0879 33.5954 57.1218 33.5013 57.1895C33.4072 57.2573 33.3356 57.3533 33.2867 57.4776C33.2415 57.6018 33.2189 57.7505 33.2189 57.9237V59.0645H32.801V57.9237C32.801 57.679 32.8424 57.4663 32.9252 57.2855C33.0081 57.1011 33.1267 56.958 33.281 56.8563C33.4354 56.7547 33.6218 56.7039 33.8401 56.7039C34.0547 56.7039 34.2392 56.7528 34.3936 56.8507C34.5479 56.9486 34.6665 57.0898 34.7494 57.2743C34.8322 57.455 34.8736 57.6715 34.8736 57.9237V59.5897C34.8736 59.7968 34.8473 59.9756 34.7945 60.1262C34.7418 60.2731 34.6646 60.3916 34.563 60.482C34.4613 60.5724 34.339 60.6288 34.1959 60.6514V60.6627C34.4406 60.6891 34.6308 60.802 34.7663 61.0016C34.9056 61.1973 34.9753 61.4647 34.9753 61.8035V63.6728C34.9753 63.9401 34.9301 64.1698 34.8397 64.3618C34.7494 64.5538 34.6195 64.7025 34.4501 64.808C34.2844 64.9134 34.0867 64.9661 33.8571 64.9661Z" fill="white"/>
<path d="M37.3043 64.9661C37.1348 64.9661 36.9824 64.936 36.8468 64.8757C36.7151 64.8155 36.6002 64.7289 36.5023 64.6159C36.4082 64.503 36.3367 64.3637 36.2877 64.198C36.2388 64.0324 36.2143 63.8441 36.2143 63.6333V57.9802C36.2143 57.7166 36.2576 57.4907 36.3442 57.3025C36.4308 57.1105 36.5532 56.9636 36.7113 56.862C36.8732 56.7566 37.0633 56.7039 37.2817 56.7039C37.5 56.7039 37.6883 56.7566 37.8464 56.862C38.0046 56.9636 38.1269 57.1086 38.2135 57.2968C38.3001 57.4813 38.3434 57.7016 38.3434 57.9576V58.9685H37.9255V57.9463C37.9255 57.7693 37.8991 57.6169 37.8464 57.4889C37.7937 57.3608 37.7184 57.263 37.6205 57.1952C37.5264 57.1274 37.4153 57.0935 37.2873 57.0935C37.1405 57.0935 37.02 57.1312 36.9259 57.2065C36.8318 57.2818 36.7602 57.3853 36.7113 57.5171C36.6661 57.6489 36.6435 57.7995 36.6435 57.9689C36.6435 57.9877 36.6435 58.0065 36.6435 58.0254C36.6435 58.0404 36.6435 58.0574 36.6435 58.0762V63.6559C36.6435 63.8667 36.6718 64.0399 36.7282 64.1754C36.7885 64.311 36.8694 64.4126 36.9711 64.4804C37.0727 64.5444 37.1857 64.5764 37.3099 64.5764C37.4304 64.5764 37.5396 64.5444 37.6375 64.4804C37.7391 64.4126 37.8201 64.3129 37.8803 64.1811C37.9406 64.0493 37.9707 63.8799 37.9707 63.6728V60.8321C37.9707 60.6364 37.9406 60.4745 37.8803 60.3465C37.8238 60.2147 37.7448 60.1187 37.6431 60.0584C37.5452 59.9944 37.436 59.9624 37.3156 59.9624C37.1725 59.9624 37.0501 60.0001 36.9485 60.0754C36.8506 60.1507 36.7753 60.2542 36.7226 60.386C36.6699 60.5178 36.6435 60.6665 36.6435 60.8321V60.15C36.6736 60.0634 36.7339 59.9756 36.8016 59.889C36.8694 59.7987 36.956 59.7252 37.0614 59.6688C37.1669 59.6085 37.2949 59.5784 37.4455 59.5784C37.6337 59.5784 37.7994 59.6255 37.9424 59.7196C38.0855 59.81 38.1966 59.9474 38.2756 60.1319C38.3585 60.3163 38.3999 60.5404 38.3999 60.8039V63.6559C38.3999 63.9307 38.3547 64.166 38.2643 64.3618C38.174 64.5576 38.046 64.7082 37.8803 64.8136C37.7184 64.9153 37.5264 64.9661 37.3043 64.9661Z" fill="white"/>
<path d="M40.7176 64.9661C40.4955 64.9661 40.3034 64.9134 40.1416 64.808C39.9797 64.7025 39.8554 64.5557 39.7688 64.3675C39.686 64.1792 39.6446 63.9571 39.6446 63.7011V62.628H40.0681V63.7124C40.0681 63.8893 40.0945 64.0437 40.1472 64.1754C40.1999 64.3035 40.2752 64.4032 40.3731 64.4748C40.471 64.5425 40.5858 64.5764 40.7176 64.5764C40.8494 64.5764 40.9642 64.5425 41.0621 64.4748C41.16 64.4032 41.2353 64.3035 41.288 64.1754C41.3407 64.0437 41.3671 63.8893 41.3671 63.7124V60.8378C41.3671 60.6571 41.3407 60.5027 41.288 60.3747C41.2353 60.2467 41.1619 60.1507 41.0677 60.0867C40.9736 60.0189 40.8644 59.985 40.7402 59.985C40.5482 59.985 40.3919 60.0622 40.2714 60.2166C40.151 60.3672 40.0907 60.5705 40.0907 60.8265C40.0907 60.9244 40.0907 61.0242 40.0907 61.1258C40.0907 61.2237 40.0907 61.3216 40.0907 61.4195H39.6841L39.7914 56.7603H41.689V57.15H40.1754L40.0964 60.1375H40.1133C40.1434 60.0584 40.1905 59.9794 40.2545 59.9003C40.3185 59.8175 40.4013 59.7497 40.503 59.697C40.6084 59.6405 40.7308 59.6123 40.8701 59.6123C41.0583 59.6123 41.2221 59.6612 41.3614 59.7591C41.5007 59.8533 41.608 59.9907 41.6833 60.1714C41.7586 60.3521 41.7963 60.5686 41.7963 60.8209V63.7011C41.7963 63.9571 41.753 64.1792 41.6664 64.3675C41.5798 64.5557 41.4555 64.7025 41.2936 64.808C41.1317 64.9134 40.9397 64.9661 40.7176 64.9661Z" fill="white"/>
<path d="M95.8938 63.7971C94.8155 63.7971 93.8673 63.6557 93.0492 63.3728C92.2684 63.0898 91.6548 62.6872 91.2086 62.1649C90.7996 61.6426 90.5951 61.0006 90.5951 60.2389V46.8221H93.9416V60.3368C93.9416 60.685 94.016 60.9788 94.1647 61.2182C94.3507 61.4576 94.5738 61.6317 94.834 61.7405C95.1315 61.8494 95.4848 61.9038 95.8938 61.9038C96.2656 61.9038 96.6003 61.8494 96.8978 61.7405C97.1952 61.6317 97.4183 61.4576 97.5671 61.2182C97.7158 60.9788 97.7902 60.685 97.7902 60.3368V19.8252C97.7902 19.477 97.7158 19.1832 97.5671 18.9438C97.4183 18.7044 97.1952 18.5303 96.8978 18.4215C96.6003 18.3127 96.2656 18.2583 95.8938 18.2583C95.4848 18.2583 95.1315 18.3127 94.834 18.4215C94.5738 18.5303 94.3507 18.7044 94.1647 18.9438C94.016 19.1832 93.9416 19.477 93.9416 19.8252V33.34H90.5951V19.9231C90.5951 19.1832 90.7996 18.5521 91.2086 18.0298C91.6548 17.4857 92.2684 17.0722 93.0492 16.7893C93.8673 16.5063 94.8155 16.3649 95.8938 16.3649C96.9721 16.3649 97.9017 16.5063 98.6826 16.7893C99.4635 17.0722 100.077 17.4857 100.523 18.0298C100.969 18.5521 101.193 19.1832 101.193 19.9231V60.2389C101.193 60.9788 100.969 61.6209 100.523 62.1649C100.077 62.6872 99.4635 63.0898 98.6826 63.3728C97.9017 63.6557 96.9721 63.7971 95.8938 63.7971ZM97.7902 40.3585H92.7146V38.4978H97.7902V40.3585Z" fill="#333333"/>
<path d="M119.175 29.6838V31.4792H115.549V63.6339H112.258V31.4792H108.577V29.6838H119.175Z" fill="#333333"/>
<path d="M131.077 63.7971C130.11 63.7971 129.237 63.6666 128.456 63.4054C127.675 63.1443 127.043 62.7634 126.559 62.2629C126.113 61.7406 125.89 61.1203 125.89 60.4021V32.8829C125.89 32.1865 126.113 31.588 126.559 31.0875C127.043 30.5652 127.675 30.1735 128.456 29.9123C129.237 29.6294 130.11 29.4879 131.077 29.4879C132.044 29.4879 132.918 29.6294 133.699 29.9123C134.48 30.1735 135.093 30.5652 135.539 31.0875C135.986 31.588 136.209 32.1865 136.209 32.8829V60.4021C136.209 61.1203 135.986 61.7406 135.539 62.2629C135.093 62.7634 134.48 63.1443 133.699 63.4054C132.918 63.6666 132.044 63.7971 131.077 63.7971ZM131.077 61.9364C131.449 61.9364 131.765 61.8929 132.025 61.8058C132.286 61.697 132.49 61.5447 132.639 61.3488C132.788 61.1312 132.862 60.8591 132.862 60.5327V32.7524C132.862 32.4477 132.788 32.1974 132.639 32.0015C132.49 31.7839 132.286 31.6207 132.025 31.5119C131.765 31.4031 131.449 31.3486 131.077 31.3486C130.705 31.3486 130.371 31.4031 130.073 31.5119C129.813 31.6207 129.609 31.7839 129.46 32.0015C129.311 32.1974 129.237 32.4477 129.237 32.7524V60.5327C129.237 60.8591 129.311 61.1312 129.46 61.3488C129.609 61.5447 129.813 61.697 130.073 61.8058C130.371 61.8929 130.705 61.9364 131.077 61.9364Z" fill="#333333"/>
<path d="M155.552 63.6339L158.285 39.9668L155.552 16.5281H158.954L161.147 39.118L163.193 16.5281H166.595L163.862 40.0647L166.595 63.6339H163.193L161.129 41.044L158.954 63.6339H155.552Z" fill="#BD0017"/>
<path d="M179.502 59.1616C179.502 60.228 179.316 61.0985 178.944 61.7732C178.61 62.4261 178.07 62.9049 177.327 63.2095C176.583 63.5142 175.56 63.6666 174.259 63.6666C174.185 63.6666 174.054 63.6557 173.869 63.6339C173.683 63.6339 173.534 63.6339 173.422 63.6339V61.8385C173.534 61.8385 173.664 61.8385 173.813 61.8385C173.962 61.8385 174.073 61.8385 174.147 61.8385C174.668 61.8385 175.077 61.7623 175.375 61.61C175.672 61.4359 175.877 61.1421 175.988 60.7286C176.137 60.2933 176.211 59.7057 176.211 58.9658L176.825 29.6838H186.418V63.6339H183.183V31.4792H179.892L179.502 59.1616Z" fill="#BD0017"/>
<path d="M200.106 63.7971C199.102 63.7971 198.209 63.6666 197.428 63.4054C196.685 63.1225 196.09 62.7308 195.644 62.2302C195.197 61.7079 194.974 61.0985 194.974 60.4021V32.8829C194.974 32.1648 195.197 31.5554 195.644 31.0548C196.09 30.5543 196.685 30.1735 197.428 29.9123C198.209 29.6294 199.102 29.4879 200.106 29.4879C201.11 29.4879 201.983 29.6294 202.727 29.9123C203.508 30.1735 204.103 30.5652 204.512 31.0875C204.958 31.588 205.181 32.1865 205.181 32.8829V47.5076H198.321V45.7775H203.396H201.835V32.7197C201.835 32.4368 201.76 32.1865 201.612 31.9689C201.463 31.7513 201.258 31.5989 200.998 31.5119C200.775 31.4031 200.477 31.3486 200.106 31.3486C199.771 31.3486 199.455 31.4031 199.157 31.5119C198.897 31.5989 198.693 31.7513 198.544 31.9689C198.395 32.1865 198.321 32.4368 198.321 32.7197V60.5653C198.321 60.87 198.395 61.1312 198.544 61.3488C198.693 61.5664 198.897 61.7297 199.157 61.8385C199.455 61.9255 199.771 61.9691 200.106 61.9691C200.477 61.9691 200.775 61.9255 200.998 61.8385C201.258 61.7297 201.463 61.5664 201.612 61.3488C201.76 61.1312 201.835 60.87 201.835 60.5653V51.5555H205.181V60.4021C205.181 60.9244 205.051 61.4032 204.791 61.8385C204.53 62.252 204.177 62.6111 203.731 62.9157C203.322 63.1987 202.801 63.4163 202.169 63.5686C201.537 63.721 200.849 63.7971 200.106 63.7971Z" fill="#BD0017"/>
<path d="M218.869 63.7971C217.865 63.7971 216.972 63.6666 216.191 63.4054C215.448 63.1443 214.834 62.7634 214.351 62.2629C213.905 61.7406 213.681 61.1203 213.681 60.4021V21.3595C213.681 20.6413 213.774 20.0102 213.96 19.4661C214.146 18.9003 214.462 18.4215 214.909 18.0298C215.355 17.6163 215.95 17.2898 216.693 17.0504C217.437 16.811 218.385 16.6587 219.538 16.5934L221.211 16.4955C221.769 16.4737 222.234 16.4411 222.606 16.3975C223.015 16.3322 223.386 16.267 223.721 16.2017V17.9971C223.424 18.0842 223.108 18.1494 222.773 18.193C222.475 18.2365 222.066 18.28 221.546 18.3236L220.04 18.4215C219.259 18.465 218.627 18.5956 218.144 18.8132C217.697 19.0308 217.363 19.3573 217.14 19.7925C216.954 20.2278 216.861 20.8372 216.861 21.6206L216.582 30.9243H216.693C216.916 30.6414 217.177 30.402 217.474 30.2061C217.809 29.9885 218.181 29.8361 218.59 29.7491C219.036 29.6403 219.501 29.5859 219.984 29.5859C220.802 29.5859 221.509 29.7056 222.104 29.9449C222.736 30.1843 223.201 30.5325 223.498 30.9896C223.833 31.4466 224 32.0124 224 32.6871V60.4021C224 61.1203 223.777 61.7406 223.331 62.2629C222.884 62.7634 222.271 63.1443 221.49 63.4054C220.709 63.6666 219.835 63.7971 218.869 63.7971ZM218.869 61.9364C219.24 61.9364 219.557 61.8929 219.817 61.8058C220.077 61.697 220.282 61.5447 220.43 61.3488C220.579 61.1312 220.653 60.8591 220.653 60.5327V32.8176C220.653 32.513 220.579 32.2518 220.43 32.0342C220.282 31.8166 220.077 31.6533 219.817 31.5445C219.557 31.4357 219.24 31.3813 218.869 31.3813C218.46 31.3813 218.106 31.4466 217.809 31.5772C217.549 31.686 217.344 31.8492 217.195 32.0668C217.084 32.2845 217.028 32.5347 217.028 32.8176V60.5327C217.028 60.8591 217.084 61.1312 217.195 61.3488C217.344 61.5447 217.549 61.697 217.809 61.8058C218.106 61.8929 218.46 61.9364 218.869 61.9364Z" fill="#BD0017"/>
<path d="M35.4738 39.2827L36.9068 37.8497L38.34 39.2829L36.907 40.7159L35.4738 39.2827Z" fill="white"/>
</svg>
