<svg width="244" height="80" viewBox="0 0 244 80" fill="none" xmlns="http://www.w3.org/2000/svg">
<path d="M84.2648 40.0001C84.2648 60.5077 67.6401 77.1325 47.1324 77.1325C26.6247 77.1325 10 60.5077 10 40.0001C10 19.4924 26.6247 2.86768 47.1324 2.86768C67.6401 2.86768 84.2648 19.4924 84.2648 40.0001Z" fill="white"/>
<path fill-rule="evenodd" clip-rule="evenodd" d="M44.4616 10.7812C44.5322 10.7768 44.669 10.7989 44.7572 10.8209C44.8543 10.8474 44.9999 10.9401 45.2779 11.218L45.75 11.1739C46.0147 11.1518 46.6324 11.1298 47.131 11.1298C47.6296 11.1298 48.2473 11.1474 48.9842 11.218L49.1253 11.0592C49.2048 10.9754 49.3592 10.8739 49.4695 10.8342C49.6063 10.7856 49.7298 10.7724 49.8666 10.7944C49.9769 10.8077 50.2946 10.8739 50.5726 10.9356C50.8505 10.9974 51.4021 11.1563 51.7948 11.2886C52.1919 11.421 52.589 11.5622 52.6772 11.6107C52.7699 11.6548 52.8978 11.7519 52.964 11.8313C53.039 11.9107 53.1052 12.0608 53.1361 12.202C53.1802 12.4226 53.1934 12.4358 53.4538 12.5726C53.6038 12.652 53.8862 12.8153 54.0803 12.93C54.42 13.1418 54.4377 13.1462 54.5745 13.0888C54.6539 13.0535 54.8039 13.027 54.9054 13.027C55.0201 13.027 55.1701 13.0668 55.2804 13.1241C55.3819 13.1815 55.6511 13.3888 55.8761 13.5874C56.1011 13.7859 56.4541 14.1389 56.6615 14.3728C56.8688 14.6066 57.16 14.9684 57.3101 15.1802C57.4601 15.392 57.6851 15.7538 57.8042 15.9832C57.9234 16.2127 58.0645 16.5127 58.1175 16.6451C58.1704 16.7774 58.2587 17.0775 58.3205 17.3069C58.3822 17.5496 58.4263 17.8584 58.4263 18.0349C58.4263 18.207 58.3955 18.4541 58.3558 18.5865C58.316 18.7188 58.2278 18.9174 58.1616 19.0277C58.091 19.138 57.9322 19.3277 57.7998 19.4468C57.6719 19.5704 57.4645 19.7381 57.3454 19.8219C57.2218 19.9057 56.9262 20.0646 56.6835 20.1793C56.4408 20.294 56.057 20.4528 55.4216 20.6823L55.3069 20.594C55.2451 20.5455 55.1745 20.444 55.1481 20.3734C55.1172 20.2675 55.126 20.219 55.1878 20.1352C55.2407 20.0734 55.4304 19.9763 55.6908 19.8837C55.9202 19.7998 56.2908 19.6454 56.507 19.5351C56.7232 19.4292 57.0233 19.2439 57.1689 19.1292C57.3145 19.01 57.4998 18.8159 57.5792 18.6968C57.6586 18.5688 57.7336 18.3923 57.7513 18.2776C57.7645 18.1673 57.7513 17.9202 57.7248 17.7261C57.6983 17.5319 57.6233 17.2231 57.5571 17.0422C57.4954 16.8613 57.3807 16.5833 57.3012 16.4245C57.2218 16.2656 57.0188 15.9303 56.8468 15.6744C56.6747 15.4185 56.3923 15.0523 56.2114 14.8581C56.0349 14.664 55.7084 14.3375 55.4922 14.1345C55.276 13.9316 55.0554 13.7462 55.0069 13.7242C54.9583 13.6977 54.8833 13.6889 54.8392 13.7065C54.7995 13.7198 54.698 13.8654 54.6186 14.033C54.5348 14.1963 54.3715 14.4787 54.2524 14.6596C54.1332 14.8405 53.8685 15.167 53.6611 15.3788C53.4538 15.595 53.1978 15.8288 53.0875 15.8994C52.9772 15.97 52.8581 16.0274 52.8228 16.0318C52.7875 16.0318 52.7037 15.9921 52.514 15.8509V14.0992C52.514 12.7491 52.5007 12.3255 52.461 12.2725C52.4301 12.2328 52.236 12.1358 52.0286 12.0608C51.8212 11.9813 51.4241 11.8534 51.1462 11.7696C50.8682 11.6901 50.427 11.5754 50.1666 11.5181C49.7431 11.4298 49.6857 11.4254 49.6328 11.4828C49.5975 11.5181 49.5357 11.7563 49.496 12.0122C49.4519 12.2681 49.3504 12.7358 49.271 13.0491C49.1871 13.3624 49.0503 13.8301 48.9577 14.086C48.8694 14.3419 48.7018 14.7787 48.5782 15.0567C48.4591 15.3346 48.2297 15.7979 48.0664 16.0847C47.9032 16.3715 47.6781 16.7333 47.559 16.8878C47.4443 17.0466 47.3031 17.1922 47.2413 17.2187C47.1678 17.2481 47.0942 17.2481 47.0207 17.2187C46.9589 17.1922 46.8177 17.051 46.7074 16.901C46.5971 16.7466 46.403 16.4554 46.2839 16.248C46.1603 16.0406 45.9794 15.7141 45.8824 15.52C45.7853 15.3258 45.6397 15.0125 45.5603 14.8272C45.4764 14.6375 45.4102 14.4213 45.4102 14.3507C45.4102 14.2581 45.4455 14.1919 45.5294 14.1301C45.6 14.0772 45.6926 14.0374 45.7412 14.0419C45.7897 14.0419 45.8691 14.0683 45.9177 14.0992C45.9662 14.1345 46.0456 14.2581 46.0897 14.3772C46.1339 14.4963 46.2795 14.8096 46.4118 15.0787C46.5442 15.3479 46.7516 15.7362 46.8795 15.9479C47.0075 16.1597 47.1178 16.3362 47.131 16.3362C47.1443 16.3362 47.2899 16.0935 47.4619 15.7979C47.634 15.4979 47.8723 15.017 47.9958 14.7258C48.1238 14.4345 48.2958 13.9801 48.3841 13.7109C48.4723 13.4418 48.6047 12.9873 48.6709 12.6961C48.7415 12.4049 48.8121 12.1005 48.8253 12.0255C48.8474 11.9019 48.8386 11.8754 48.7503 11.8534C48.6974 11.8401 48.137 11.8181 47.5061 11.8049C46.8751 11.7916 46.1559 11.8004 45.9132 11.8181C45.6662 11.8401 45.4455 11.8754 45.4279 11.8931C45.4058 11.9107 45.4235 12.1225 45.4676 12.3564C45.5426 12.7447 45.5426 12.7932 45.4808 12.8858C45.4411 12.9388 45.3441 12.9962 45.2646 13.0094C45.172 13.0226 45.0882 13.0094 45.022 12.9653C44.969 12.9256 44.9028 12.8108 44.8764 12.7094C44.8499 12.6035 44.7881 12.3034 44.744 12.0343C44.6955 11.7651 44.6602 11.5357 44.6602 11.5181C44.6602 11.496 44.6249 11.4739 44.5807 11.4607C44.541 11.4475 44.2586 11.4872 43.9542 11.5534C43.6498 11.6151 43.0762 11.774 42.6747 11.9063C42.2731 12.0387 41.9202 12.1711 41.8893 12.202C41.8452 12.2417 41.8319 12.6344 41.8363 14.033C41.8363 15.7494 41.8319 15.8112 41.7481 15.895C41.6996 15.9435 41.6069 15.9965 41.5363 16.0097C41.4481 16.0274 41.373 16.0009 41.2407 15.9082C41.1436 15.842 40.9053 15.6259 40.7112 15.4317C40.5171 15.2376 40.2479 14.9111 40.1111 14.7037C39.9744 14.4963 39.7979 14.2007 39.7185 14.0419C39.639 13.883 39.542 13.7198 39.5023 13.6756C39.4625 13.6315 39.4184 13.5962 39.3964 13.6006C39.3787 13.6006 39.1625 13.7771 38.911 13.9889C38.6639 14.2051 38.3154 14.536 38.1389 14.7302C37.9624 14.9199 37.6888 15.2596 37.5344 15.4758C37.3756 15.692 37.1285 16.1112 36.9829 16.4024C36.8373 16.6936 36.6784 17.0995 36.6211 17.3069C36.5637 17.5319 36.524 17.8231 36.524 18.0393C36.5196 18.3614 36.5328 18.4144 36.652 18.6129C36.727 18.7321 36.9079 18.9262 37.0491 19.0409C37.1947 19.1556 37.53 19.3586 37.7991 19.491C38.0639 19.6233 38.4919 19.7998 38.7478 19.8881C39.0037 19.9763 39.489 20.1131 39.8288 20.1969C40.1685 20.2808 40.7333 20.3999 41.0863 20.4617C41.4392 20.5234 42.0349 20.6117 42.4099 20.6602C42.785 20.7087 43.4821 20.7793 43.9542 20.8235C44.6337 20.8852 45.3088 20.8985 47.1751 20.8985C49.0592 20.8985 49.7166 20.8852 50.4402 20.8235C50.9388 20.7793 51.6712 20.7043 52.0727 20.6558C52.4742 20.6029 52.9596 20.5367 53.1537 20.5014C53.3479 20.4661 53.5596 20.4396 53.6258 20.4396C53.7082 20.4396 53.7788 20.4808 53.8376 20.5631C53.8906 20.6293 53.9303 20.722 53.9303 20.7705C53.9303 20.8191 53.895 20.9073 53.8509 20.9647C53.7803 21.0529 53.6832 21.0794 53.1317 21.172C52.7787 21.2294 52.1257 21.3176 51.6756 21.3662C51.2256 21.4147 50.5814 21.4721 50.2416 21.4941C49.9019 21.5206 49.0592 21.5647 48.3664 21.5912C47.281 21.6397 46.9016 21.6353 45.5867 21.5691C44.7484 21.5294 43.7557 21.4677 43.3806 21.4324C43.0056 21.3971 42.3967 21.3265 42.0349 21.2735C41.6687 21.225 41.1039 21.1367 40.7774 21.075C40.4509 21.0132 39.9126 20.8985 39.5861 20.8146C39.2596 20.7308 38.7566 20.5852 38.4698 20.4881C38.1874 20.3867 37.7506 20.2058 37.4991 20.0822C37.252 19.9587 36.9299 19.7734 36.7843 19.6675C36.6387 19.566 36.4225 19.3763 36.3078 19.2439C36.1887 19.1115 36.0387 18.8953 35.9769 18.763C35.8886 18.5821 35.8533 18.4364 35.8401 18.1894C35.8313 17.9864 35.8577 17.7128 35.9019 17.4834C35.946 17.276 36.0254 16.9804 36.0784 16.8216C36.1357 16.6627 36.2328 16.4201 36.2946 16.2833C36.3563 16.1421 36.5152 15.8553 36.6431 15.6435C36.7667 15.4273 36.9873 15.1052 37.1241 14.9243C37.2608 14.7434 37.5476 14.4081 37.7594 14.1786C37.9756 13.9492 38.3198 13.6227 38.5272 13.4462C38.7345 13.2697 38.9684 13.0976 39.0434 13.0579C39.1272 13.0138 39.2905 12.9829 39.4184 12.9829C39.5464 12.9873 39.7008 13.0138 39.7626 13.0447C39.8641 13.0976 39.8949 13.0888 40.1376 12.9432C40.2832 12.8506 40.5744 12.6873 40.7862 12.5726C41.0951 12.4049 41.1745 12.3431 41.1745 12.2681C41.1745 12.2108 41.2142 12.0872 41.2583 11.9902C41.298 11.8931 41.3951 11.7651 41.4657 11.7034C41.5363 11.6416 41.7613 11.5269 41.9687 11.443C42.1761 11.3636 42.582 11.2313 42.8732 11.1474C43.1644 11.0636 43.6101 10.9489 43.866 10.8915C44.1219 10.8297 44.3866 10.7812 44.4616 10.7812ZM40.4553 13.5168L40.2479 13.6448C40.4641 14.0374 40.5965 14.2536 40.6847 14.3728C40.7686 14.4963 40.9142 14.6772 41.0068 14.7831L41.1745 14.9684C41.1745 13.53 41.1701 13.1153 41.1613 13.1153C41.1568 13.1153 41.0421 13.1771 40.9098 13.2521C40.7774 13.3271 40.5744 13.4462 40.4553 13.5168ZM53.2464 14.8802C53.2861 14.8449 53.4052 14.7037 53.5067 14.5713C53.6082 14.439 53.7758 14.1919 53.8729 14.0198C53.9744 13.8477 54.045 13.6977 54.0273 13.6801C54.0053 13.6624 53.8244 13.5477 53.617 13.4241C53.4096 13.3006 53.2287 13.2035 53.2111 13.2035C53.189 13.2035 53.1758 13.5962 53.1758 14.0772C53.1714 14.889 53.1758 14.942 53.2464 14.8802Z" fill="#BD0017"/>
<path d="M27.66 21.4582L29.0863 20.0319L67.5959 58.5415L66.1696 59.9678L27.66 21.4582Z" fill="#BD0017"/>
<path d="M28.3731 59.2547L26.9468 57.8284L65.4565 19.3188L66.8827 20.745L28.3731 59.2547Z" fill="#BD0017"/>
<path d="M22.6721 51.6356C21.9635 51.6356 21.3388 51.543 20.798 51.3578C20.2759 51.1726 19.875 50.9103 19.5953 50.5708C19.3156 50.2313 19.1757 49.8249 19.1757 49.3516V43.6416H21.2456V49.4442C21.2456 49.6808 21.3015 49.8815 21.4134 50.0461C21.5253 50.2004 21.6838 50.3187 21.8889 50.401C22.1127 50.4833 22.3737 50.5245 22.6721 50.5245C22.9518 50.5245 23.1942 50.4833 23.3993 50.401C23.6231 50.3187 23.7909 50.2004 23.9028 50.0461C24.0147 49.8815 24.0706 49.6808 24.0706 49.4442V31.342C24.0706 31.1156 24.0147 30.9202 23.9028 30.7556C23.7909 30.5909 23.6231 30.4675 23.3993 30.3852C23.1942 30.3029 22.9518 30.2617 22.6721 30.2617C22.3737 30.2617 22.1127 30.3029 21.8889 30.3852C21.6838 30.4675 21.5253 30.5909 21.4134 30.7556C21.3015 30.9202 21.2456 31.1156 21.2456 31.342V37.1446H19.1757V31.4346C19.1757 30.9716 19.3156 30.5704 19.5953 30.2309C19.875 29.8811 20.2759 29.6136 20.798 29.4284C21.3388 29.2432 21.9635 29.1506 22.6721 29.1506C23.3993 29.1506 24.024 29.2432 24.5462 29.4284C25.0683 29.6136 25.4692 29.8811 25.7489 30.2309C26.0473 30.5704 26.1964 30.9716 26.1964 31.4346V49.3516C26.1964 49.8146 26.0473 50.221 25.7489 50.5708C25.4692 50.9103 25.0683 51.1726 24.5462 51.3578C24.024 51.543 23.3993 51.6356 22.6721 51.6356ZM24.0706 40.6323H20.7701V39.552H24.0706V40.6323Z" fill="#BD0017"/>
<path d="M67.6232 51.5276L69.6931 40.3391L67.6512 29.2586H69.749L71.3434 39.7835L72.9937 29.2586H75.0915L73.0217 40.4008L75.0635 51.5276H72.9657L71.3993 41.0027L69.7211 51.5276H67.6232Z" fill="#BD0017"/>
<path d="M43.8571 64.9666C43.6312 64.9666 43.4335 64.9157 43.2641 64.8141C43.0984 64.7087 42.9704 64.56 42.8801 64.3679C42.7935 64.1759 42.7502 63.9444 42.7502 63.6733V62.5156H43.1681V63.6846C43.1681 63.8766 43.1963 64.0404 43.2528 64.1759C43.3093 64.3077 43.3883 64.4094 43.49 64.4809C43.5916 64.5487 43.714 64.5826 43.8571 64.5826C44.0001 64.5826 44.1225 64.5468 44.2242 64.4752C44.3296 64.4037 44.4086 64.3021 44.4613 64.1703C44.5178 64.0347 44.5461 63.8729 44.5461 63.6846V61.7645C44.5461 61.4557 44.4783 61.228 44.3427 61.0811C44.2072 60.9343 44.0171 60.8609 43.7724 60.8609H43.4448V60.4825H43.7667C43.8985 60.4825 44.0152 60.4543 44.1168 60.3978C44.2223 60.3375 44.3032 60.2453 44.3597 60.1211C44.4199 59.993 44.4501 59.833 44.4501 59.641V57.9242C44.4501 57.7435 44.4256 57.5929 44.3766 57.4724C44.3277 57.3482 44.258 57.254 44.1677 57.19C44.0773 57.1223 43.9681 57.0884 43.8401 57.0884C43.7083 57.0884 43.5954 57.1223 43.5013 57.19C43.4072 57.2578 43.3356 57.3538 43.2867 57.4781C43.2415 57.6023 43.2189 57.751 43.2189 57.9242V59.065H42.801V57.9242C42.801 57.6795 42.8424 57.4668 42.9252 57.286C43.0081 57.1016 43.1267 56.9585 43.281 56.8568C43.4354 56.7552 43.6218 56.7043 43.8401 56.7043C44.0547 56.7043 44.2392 56.7533 44.3936 56.8512C44.5479 56.9491 44.6665 57.0903 44.7494 57.2747C44.8322 57.4555 44.8736 57.6719 44.8736 57.9242V59.5902C44.8736 59.7973 44.8473 59.9761 44.7945 60.1267C44.7418 60.2735 44.6646 60.3921 44.563 60.4825C44.4613 60.5729 44.339 60.6293 44.1959 60.6519V60.6632C44.4406 60.6896 44.6308 60.8025 44.7663 61.0021C44.9056 61.1978 44.9753 61.4652 44.9753 61.804V63.6733C44.9753 63.9406 44.9301 64.1703 44.8397 64.3623C44.7494 64.5543 44.6195 64.703 44.4501 64.8084C44.2844 64.9139 44.0867 64.9666 43.8571 64.9666Z" fill="#BD0017"/>
<path d="M47.3043 64.9666C47.1348 64.9666 46.9824 64.9365 46.8468 64.8762C46.7151 64.816 46.6002 64.7294 46.5023 64.6164C46.4082 64.5035 46.3367 64.3642 46.2877 64.1985C46.2388 64.0329 46.2143 63.8446 46.2143 63.6338V57.9807C46.2143 57.7171 46.2576 57.4912 46.3442 57.303C46.4308 57.111 46.5532 56.9641 46.7113 56.8625C46.8732 56.7571 47.0633 56.7043 47.2817 56.7043C47.5 56.7043 47.6883 56.7571 47.8464 56.8625C48.0046 56.9641 48.1269 57.1091 48.2135 57.2973C48.3001 57.4818 48.3434 57.7021 48.3434 57.9581V58.969H47.9255V57.9468C47.9255 57.7698 47.8991 57.6174 47.8464 57.4893C47.7937 57.3613 47.7184 57.2634 47.6205 57.1957C47.5264 57.1279 47.4153 57.094 47.2873 57.094C47.1405 57.094 47.02 57.1317 46.9259 57.207C46.8318 57.2823 46.7602 57.3858 46.7113 57.5176C46.6661 57.6494 46.6435 57.8 46.6435 57.9694C46.6435 57.9882 46.6435 58.007 46.6435 58.0259C46.6435 58.0409 46.6435 58.0579 46.6435 58.0767V63.6564C46.6435 63.8672 46.6718 64.0404 46.7282 64.1759C46.7885 64.3115 46.8694 64.4131 46.9711 64.4809C47.0727 64.5449 47.1857 64.5769 47.3099 64.5769C47.4304 64.5769 47.5396 64.5449 47.6375 64.4809C47.7391 64.4131 47.8201 64.3134 47.8803 64.1816C47.9406 64.0498 47.9707 63.8804 47.9707 63.6733V60.8326C47.9707 60.6369 47.9406 60.475 47.8803 60.347C47.8238 60.2152 47.7448 60.1192 47.6431 60.0589C47.5452 59.9949 47.436 59.9629 47.3156 59.9629C47.1725 59.9629 47.0501 60.0006 46.9485 60.0759C46.8506 60.1512 46.7753 60.2547 46.7226 60.3865C46.6699 60.5183 46.6435 60.667 46.6435 60.8326V60.1505C46.6736 60.0639 46.7339 59.9761 46.8016 59.8895C46.8694 59.7992 46.956 59.7257 47.0614 59.6693C47.1669 59.609 47.2949 59.5789 47.4455 59.5789C47.6337 59.5789 47.7994 59.626 47.9424 59.7201C48.0855 59.8104 48.1966 59.9479 48.2756 60.1324C48.3585 60.3168 48.3999 60.5409 48.3999 60.8044V63.6564C48.3999 63.9312 48.3547 64.1665 48.2643 64.3623C48.174 64.5581 48.046 64.7087 47.8803 64.8141C47.7184 64.9157 47.5264 64.9666 47.3043 64.9666Z" fill="#BD0017"/>
<path d="M50.7176 64.9666C50.4955 64.9666 50.3034 64.9139 50.1416 64.8084C49.9797 64.703 49.8554 64.5562 49.7688 64.3679C49.686 64.1797 49.6446 63.9576 49.6446 63.7015V62.6285H50.0681V63.7128C50.0681 63.8898 50.0945 64.0442 50.1472 64.1759C50.1999 64.3039 50.2752 64.4037 50.3731 64.4752C50.471 64.543 50.5858 64.5769 50.7176 64.5769C50.8494 64.5769 50.9642 64.543 51.0621 64.4752C51.16 64.4037 51.2353 64.3039 51.288 64.1759C51.3407 64.0442 51.3671 63.8898 51.3671 63.7128V60.8383C51.3671 60.6576 51.3407 60.5032 51.288 60.3752C51.2353 60.2472 51.1619 60.1512 51.0677 60.0872C50.9736 60.0194 50.8644 59.9855 50.7402 59.9855C50.5482 59.9855 50.3919 60.0627 50.2714 60.2171C50.151 60.3677 50.0907 60.571 50.0907 60.827C50.0907 60.9249 50.0907 61.0247 50.0907 61.1263C50.0907 61.2242 50.0907 61.3221 50.0907 61.42H49.6841L49.7914 56.7608H51.689V57.1505H50.1754L50.0964 60.138H50.1133C50.1434 60.0589 50.1905 59.9799 50.2545 59.9008C50.3185 59.818 50.4013 59.7502 50.503 59.6975C50.6084 59.641 50.7308 59.6128 50.8701 59.6128C51.0583 59.6128 51.2221 59.6617 51.3614 59.7596C51.5007 59.8537 51.608 59.9912 51.6833 60.1719C51.7586 60.3526 51.7963 60.5691 51.7963 60.8213V63.7015C51.7963 63.9576 51.753 64.1797 51.6664 64.3679C51.5798 64.5562 51.4555 64.703 51.2936 64.8084C51.1317 64.9139 50.9397 64.9666 50.7176 64.9666Z" fill="#BD0017"/>
<path d="M105.894 63.7976C104.815 63.7976 103.867 63.6562 103.049 63.3733C102.268 63.0903 101.655 62.6877 101.209 62.1654C100.8 61.6431 100.595 61.0011 100.595 60.2394V46.8226H103.942V60.3373C103.942 60.6855 104.016 60.9793 104.165 61.2187C104.351 61.4581 104.574 61.6322 104.834 61.741C105.132 61.8498 105.485 61.9043 105.894 61.9043C106.266 61.9043 106.6 61.8498 106.898 61.741C107.195 61.6322 107.418 61.4581 107.567 61.2187C107.716 60.9793 107.79 60.6855 107.79 60.3373V19.8257C107.79 19.4775 107.716 19.1837 107.567 18.9443C107.418 18.7049 107.195 18.5308 106.898 18.422C106.6 18.3132 106.266 18.2588 105.894 18.2588C105.485 18.2588 105.132 18.3132 104.834 18.422C104.574 18.5308 104.351 18.7049 104.165 18.9443C104.016 19.1837 103.942 19.4775 103.942 19.8257V33.3404H100.595V19.9236C100.595 19.1837 100.8 18.5525 101.209 18.0302C101.655 17.4862 102.268 17.0727 103.049 16.7898C103.867 16.5068 104.815 16.3654 105.894 16.3654C106.972 16.3654 107.902 16.5068 108.683 16.7898C109.463 17.0727 110.077 17.4862 110.523 18.0302C110.969 18.5525 111.193 19.1837 111.193 19.9236V60.2394C111.193 60.9793 110.969 61.6213 110.523 62.1654C110.077 62.6877 109.463 63.0903 108.683 63.3733C107.902 63.6562 106.972 63.7976 105.894 63.7976ZM107.79 40.359H102.715V38.4983H107.79V40.359Z" fill="white"/>
<path d="M129.175 29.6843V31.4797H125.549V63.6344H122.258V31.4797H118.577V29.6843H129.175Z" fill="white"/>
<path d="M141.077 63.7976C140.11 63.7976 139.237 63.6671 138.456 63.4059C137.675 63.1447 137.043 62.7639 136.559 62.2633C136.113 61.741 135.89 61.1208 135.89 60.4026V32.8834C135.89 32.187 136.113 31.5885 136.559 31.088C137.043 30.5657 137.675 30.1739 138.456 29.9128C139.237 29.6299 140.11 29.4884 141.077 29.4884C142.044 29.4884 142.918 29.6299 143.699 29.9128C144.48 30.1739 145.093 30.5657 145.539 31.088C145.986 31.5885 146.209 32.187 146.209 32.8834V60.4026C146.209 61.1208 145.986 61.741 145.539 62.2633C145.093 62.7639 144.48 63.1447 143.699 63.4059C142.918 63.6671 142.044 63.7976 141.077 63.7976ZM141.077 61.9369C141.449 61.9369 141.765 61.8934 142.025 61.8063C142.286 61.6975 142.49 61.5452 142.639 61.3493C142.788 61.1317 142.862 60.8596 142.862 60.5332V32.7528C142.862 32.4482 142.788 32.1979 142.639 32.002C142.49 31.7844 142.286 31.6212 142.025 31.5124C141.765 31.4035 141.449 31.3491 141.077 31.3491C140.705 31.3491 140.371 31.4035 140.073 31.5124C139.813 31.6212 139.609 31.7844 139.46 32.002C139.311 32.1979 139.237 32.4482 139.237 32.7528V60.5332C139.237 60.8596 139.311 61.1317 139.46 61.3493C139.609 61.5452 139.813 61.6975 140.073 61.8063C140.371 61.8934 140.705 61.9369 141.077 61.9369Z" fill="white"/>
<path d="M165.552 63.6344L168.285 39.9673L165.552 16.5286H168.954L171.147 39.1185L173.193 16.5286H176.595L173.862 40.0652L176.595 63.6344H173.193L171.129 41.0445L168.954 63.6344H165.552Z" fill="white"/>
<path d="M189.502 59.1621C189.502 60.2285 189.316 61.099 188.944 61.7737C188.61 62.4266 188.07 62.9053 187.327 63.21C186.583 63.5147 185.56 63.6671 184.259 63.6671C184.185 63.6671 184.054 63.6562 183.869 63.6344C183.683 63.6344 183.534 63.6344 183.422 63.6344V61.839C183.534 61.839 183.664 61.839 183.813 61.839C183.962 61.839 184.073 61.839 184.147 61.839C184.668 61.839 185.077 61.7628 185.375 61.6105C185.672 61.4364 185.877 61.1426 185.988 60.7291C186.137 60.2938 186.211 59.7062 186.211 58.9663L186.825 29.6843H196.418V63.6344H193.183V31.4797H189.892L189.502 59.1621Z" fill="white"/>
<path d="M210.106 63.7976C209.102 63.7976 208.209 63.6671 207.428 63.4059C206.685 63.123 206.09 62.7312 205.644 62.2307C205.197 61.7084 204.974 61.099 204.974 60.4026V32.8834C204.974 32.1652 205.197 31.5559 205.644 31.0553C206.09 30.5548 206.685 30.1739 207.428 29.9128C208.209 29.6299 209.102 29.4884 210.106 29.4884C211.11 29.4884 211.983 29.6299 212.727 29.9128C213.508 30.1739 214.103 30.5657 214.512 31.088C214.958 31.5885 215.181 32.187 215.181 32.8834V47.5081H208.321V45.7779H213.396H211.835V32.7202C211.835 32.4373 211.76 32.187 211.612 31.9694C211.463 31.7518 211.258 31.5994 210.998 31.5124C210.775 31.4035 210.477 31.3491 210.106 31.3491C209.771 31.3491 209.455 31.4035 209.157 31.5124C208.897 31.5994 208.693 31.7518 208.544 31.9694C208.395 32.187 208.321 32.4373 208.321 32.7202V60.5658C208.321 60.8705 208.395 61.1317 208.544 61.3493C208.693 61.5669 208.897 61.7302 209.157 61.839C209.455 61.926 209.771 61.9696 210.106 61.9696C210.477 61.9696 210.775 61.926 210.998 61.839C211.258 61.7302 211.463 61.5669 211.612 61.3493C211.76 61.1317 211.835 60.8705 211.835 60.5658V51.556H215.181V60.4026C215.181 60.9249 215.051 61.4037 214.791 61.839C214.53 62.2525 214.177 62.6115 213.731 62.9162C213.322 63.1991 212.801 63.4168 212.169 63.5691C211.537 63.7215 210.849 63.7976 210.106 63.7976Z" fill="white"/>
<path d="M228.869 63.7976C227.865 63.7976 226.972 63.6671 226.191 63.4059C225.448 63.1447 224.834 62.7639 224.351 62.2633C223.905 61.741 223.681 61.1208 223.681 60.4026V21.36C223.681 20.6418 223.774 20.0107 223.96 19.4666C224.146 18.9008 224.462 18.422 224.909 18.0302C225.355 17.6167 225.95 17.2903 226.693 17.0509C227.437 16.8115 228.385 16.6592 229.538 16.5939L231.211 16.496C231.769 16.4742 232.234 16.4415 232.606 16.398C233.015 16.3327 233.386 16.2674 233.721 16.2022V17.9976C233.424 18.0846 233.108 18.1499 232.773 18.1935C232.475 18.237 232.066 18.2805 231.546 18.324L230.04 18.422C229.259 18.4655 228.627 18.5961 228.144 18.8137C227.697 19.0313 227.363 19.3578 227.14 19.793C226.954 20.2283 226.861 20.8377 226.861 21.6211L226.582 30.9248H226.693C226.916 30.6418 227.177 30.4025 227.474 30.2066C227.809 29.989 228.181 29.8366 228.59 29.7496C229.036 29.6408 229.501 29.5863 229.984 29.5863C230.802 29.5863 231.509 29.706 232.104 29.9454C232.736 30.1848 233.201 30.533 233.498 30.99C233.833 31.4471 234 32.0129 234 32.6876V60.4026C234 61.1208 233.777 61.741 233.331 62.2633C232.884 62.7639 232.271 63.1447 231.49 63.4059C230.709 63.6671 229.835 63.7976 228.869 63.7976ZM228.869 61.9369C229.24 61.9369 229.557 61.8934 229.817 61.8063C230.077 61.6975 230.282 61.5452 230.43 61.3493C230.579 61.1317 230.653 60.8596 230.653 60.5332V32.8181C230.653 32.5135 230.579 32.2523 230.43 32.0347C230.282 31.817 230.077 31.6538 229.817 31.545C229.557 31.4362 229.24 31.3818 228.869 31.3818C228.46 31.3818 228.106 31.4471 227.809 31.5777C227.549 31.6865 227.344 31.8497 227.195 32.0673C227.084 32.2849 227.028 32.5352 227.028 32.8181V60.5332C227.028 60.8596 227.084 61.1317 227.195 61.3493C227.344 61.5452 227.549 61.6975 227.809 61.8063C228.106 61.8934 228.46 61.9369 228.869 61.9369Z" fill="white"/>
<path d="M45.4738 39.2832L46.9068 37.8501L48.34 39.2834L46.907 40.7164L45.4738 39.2832Z" fill="#BD0017"/>
</svg>
