<svg width="188" height="48" viewBox="0 0 188 48" fill="none" xmlns="http://www.w3.org/2000/svg">
<path d="M7.632 37.936C6.16 37.936 4.752 37.68 3.408 37.168C2.064 36.624 0.928 35.856 0 34.864L2.064 32.08C2.896 32.88 3.76 33.488 4.656 33.904C5.584 34.32 6.448 34.528 7.248 34.528C8.176 34.528 8.992 34.352 9.696 34C10.4 33.616 10.752 32.992 10.752 32.128C10.752 31.424 10.512 30.88 10.032 30.496C9.584 30.112 9.008 29.792 8.304 29.536C7.6 29.28 6.848 29.04 6.048 28.816C4.384 28.272 3.104 27.504 2.208 26.512C1.344 25.488 0.912 24.288 0.912 22.912C0.912 21.856 1.168 20.864 1.68 19.936C2.224 18.976 3.04 18.208 4.128 17.632C5.216 17.024 6.56 16.72 8.16 16.72C9.568 16.72 10.832 16.896 11.952 17.248C13.072 17.568 14.112 18.128 15.072 18.928L13.2 21.856C12.624 21.28 11.936 20.848 11.136 20.56C10.368 20.24 9.664 20.064 9.024 20.032C8.16 20.032 7.408 20.24 6.768 20.656C6.128 21.04 5.808 21.568 5.808 22.24C5.808 22.912 6.032 23.456 6.48 23.872C6.928 24.256 7.504 24.576 8.208 24.832C8.944 25.056 9.68 25.296 10.416 25.552C11.888 26.032 13.104 26.688 14.064 27.52C15.056 28.352 15.552 29.568 15.552 31.168C15.552 32.384 15.264 33.504 14.688 34.528C14.112 35.552 13.232 36.384 12.048 37.024C10.896 37.632 9.424 37.936 7.632 37.936Z" fill="#1E1E1E"/>
<path d="M19.971 27.28C19.971 25.264 20.451 23.456 21.411 21.856C22.371 20.224 23.699 18.944 25.395 18.016C27.091 17.088 29.027 16.624 31.203 16.624C33.411 16.624 35.331 17.088 36.963 18.016C38.627 18.944 39.907 20.224 40.803 21.856C41.731 23.456 42.195 25.264 42.195 27.28C42.195 29.296 41.731 31.12 40.803 32.752C39.875 34.352 38.579 35.632 36.915 36.592C35.283 37.52 33.347 37.984 31.107 37.984C28.995 37.984 27.091 37.552 25.395 36.688C23.731 35.824 22.403 34.592 21.411 32.992C20.451 31.36 19.971 29.456 19.971 27.28ZM24.867 27.328C24.867 28.576 25.139 29.712 25.683 30.736C26.227 31.728 26.963 32.528 27.891 33.136C28.851 33.712 29.907 34 31.059 34C32.883 34 34.371 33.36 35.523 32.08C36.707 30.8 37.299 29.216 37.299 27.328C37.299 25.44 36.707 23.856 35.523 22.576C34.371 21.264 32.883 20.608 31.059 20.608C29.875 20.608 28.819 20.912 27.891 21.52C26.963 22.128 26.227 22.944 25.683 23.968C25.139 24.992 24.867 26.112 24.867 27.328Z" fill="#1E1E1E"/>
<path d="M54.4748 38.32C52.6188 38.32 51.0987 37.76 49.9147 36.64C48.7307 35.52 48.1068 34.08 48.0428 32.32V17.44H52.8908V30.592C52.9548 31.648 53.2587 32.496 53.8027 33.136C54.3467 33.776 55.2108 34.128 56.3948 34.192C57.4828 34.192 58.4587 33.872 59.3228 33.232C60.1868 32.56 60.8587 31.648 61.3387 30.496C61.8507 29.344 62.1068 28.048 62.1068 26.608V17.44H66.9548V37.504H62.5868L62.2028 32.8L62.3948 33.568C61.7868 34.944 60.7628 36.08 59.3228 36.976C57.9148 37.872 56.2988 38.32 54.4748 38.32Z" fill="#1E1E1E"/>
<path d="M82.782 37.984C80.894 37.984 79.198 37.552 77.694 36.688C76.19 35.792 75.006 34.528 74.142 32.896C73.278 31.264 72.846 29.36 72.846 27.184C72.846 24.944 73.31 23.04 74.238 21.472C75.166 19.904 76.414 18.704 77.982 17.872C79.582 17.04 81.374 16.624 83.358 16.624C84.894 16.624 86.35 16.944 87.726 17.584C89.134 18.192 90.238 19.056 91.038 20.176L90.846 21.856V0.208008H95.694V37.504H90.798V32.704L91.326 34C90.366 35.152 89.15 36.112 87.678 36.88C86.238 37.616 84.606 37.984 82.782 37.984ZM84.27 33.904C85.966 33.904 87.374 33.472 88.494 32.608C89.646 31.712 90.414 30.528 90.798 29.056V25.072C90.446 23.728 89.662 22.624 88.446 21.76C87.262 20.896 85.87 20.464 84.27 20.464C83.118 20.464 82.046 20.752 81.054 21.328C80.062 21.872 79.262 22.656 78.654 23.68C78.078 24.672 77.79 25.824 77.79 27.136C77.79 28.384 78.078 29.52 78.654 30.544C79.262 31.568 80.062 32.384 81.054 32.992C82.046 33.6 83.118 33.904 84.27 33.904Z" fill="#1E1E1E"/>
<path d="M112.67 37.984C110.366 37.984 108.381 37.536 106.717 36.64C105.053 35.712 103.774 34.448 102.878 32.848C101.982 31.216 101.534 29.376 101.534 27.328C101.534 25.344 102.029 23.552 103.021 21.952C104.045 20.32 105.406 19.024 107.102 18.064C108.798 17.104 110.686 16.624 112.766 16.624C115.454 16.624 117.678 17.408 119.438 18.976C121.23 20.512 122.429 22.688 123.037 25.504L106.67 31.168L105.518 28.384L118.67 23.584L117.661 24.256C117.277 23.232 116.67 22.352 115.838 21.616C115.006 20.848 113.869 20.464 112.429 20.464C110.637 20.464 109.165 21.088 108.013 22.336C106.893 23.552 106.334 25.12 106.334 27.04C106.334 29.088 106.942 30.736 108.158 31.984C109.374 33.232 110.91 33.856 112.766 33.856C113.63 33.856 114.461 33.712 115.261 33.424C116.061 33.104 116.814 32.688 117.518 32.176L119.726 35.776C118.702 36.448 117.565 36.992 116.317 37.408C115.101 37.792 113.886 37.984 112.67 37.984Z" fill="#1E1E1E"/>
<path d="M132.848 17.44L133.28 21.808L133.04 21.424C133.776 19.92 134.816 18.752 136.16 17.92C137.536 17.056 139.104 16.624 140.864 16.624C142.528 16.624 143.92 17.008 145.04 17.776C146.16 18.544 146.848 19.632 147.104 21.04L146.864 21.232C147.664 19.792 148.736 18.672 150.08 17.872C151.424 17.04 152.832 16.624 154.304 16.624C156.288 16.624 157.856 17.184 159.008 18.304C160.16 19.392 160.752 20.832 160.784 22.624V37.504H155.984V24.448C155.952 23.424 155.712 22.576 155.264 21.904C154.848 21.232 154.08 20.864 152.96 20.8C151.808 20.8 150.784 21.152 149.888 21.856C149.024 22.56 148.336 23.472 147.824 24.592C147.344 25.712 147.088 26.912 147.056 28.192V37.504H142.208V24.448C142.176 23.424 141.92 22.576 141.44 21.904C140.992 21.232 140.208 20.864 139.088 20.8C137.968 20.8 136.96 21.152 136.064 21.856C135.2 22.56 134.528 23.488 134.048 24.64C133.568 25.76 133.328 26.96 133.328 28.24V37.504H128.48V17.44H132.848Z" fill="#1E1E1E"/>
<path d="M170.005 47.152L183.205 17.44H187.669L174.709 47.152H170.005ZM174.997 37.648L165.349 17.44H170.773L178.789 35.2L174.997 37.648Z" fill="#1E1E1E"/>
</svg>
