<svg width="189" height="48" viewBox="0 0 189 48" fill="none" xmlns="http://www.w3.org/2000/svg">
<path d="M8.55778 37.936C7.08578 37.936 5.67778 37.68 4.33378 37.168C2.98978 36.624 1.85378 35.856 0.925781 34.864L2.98978 32.08C3.82178 32.88 4.68578 33.488 5.58178 33.904C6.50978 34.32 7.37378 34.528 8.17378 34.528C9.10178 34.528 9.91778 34.352 10.6218 34C11.3258 33.616 11.6778 32.992 11.6778 32.128C11.6778 31.424 11.4378 30.88 10.9578 30.496C10.5098 30.112 9.93378 29.792 9.22978 29.536C8.52578 29.28 7.77378 29.04 6.97378 28.816C5.30978 28.272 4.02978 27.504 3.13378 26.512C2.26978 25.488 1.83778 24.288 1.83778 22.912C1.83778 21.856 2.09378 20.864 2.60578 19.936C3.14978 18.976 3.96578 18.208 5.05378 17.632C6.14178 17.024 7.48578 16.72 9.08578 16.72C10.4938 16.72 11.7578 16.896 12.8778 17.248C13.9978 17.568 15.0378 18.128 15.9978 18.928L14.1258 21.856C13.5498 21.28 12.8618 20.848 12.0618 20.56C11.2938 20.24 10.5898 20.064 9.94978 20.032C9.08578 20.032 8.33378 20.24 7.69378 20.656C7.05378 21.04 6.73378 21.568 6.73378 22.24C6.73378 22.912 6.95778 23.456 7.40578 23.872C7.85378 24.256 8.42978 24.576 9.13378 24.832C9.86978 25.056 10.6058 25.296 11.3418 25.552C12.8138 26.032 14.0298 26.688 14.9898 27.52C15.9818 28.352 16.4778 29.568 16.4778 31.168C16.4778 32.384 16.1898 33.504 15.6138 34.528C15.0378 35.552 14.1578 36.384 12.9738 37.024C11.8218 37.632 10.3498 37.936 8.55778 37.936Z" fill="white"/>
<path d="M20.8968 27.28C20.8968 25.264 21.3768 23.456 22.3368 21.856C23.2968 20.224 24.6248 18.944 26.3208 18.016C28.0168 17.088 29.9528 16.624 32.1288 16.624C34.3368 16.624 36.2568 17.088 37.8888 18.016C39.5528 18.944 40.8328 20.224 41.7288 21.856C42.6568 23.456 43.1208 25.264 43.1208 27.28C43.1208 29.296 42.6568 31.12 41.7288 32.752C40.8008 34.352 39.5048 35.632 37.8408 36.592C36.2088 37.52 34.2728 37.984 32.0328 37.984C29.9208 37.984 28.0168 37.552 26.3208 36.688C24.6568 35.824 23.3288 34.592 22.3368 32.992C21.3768 31.36 20.8968 29.456 20.8968 27.28ZM25.7928 27.328C25.7928 28.576 26.0648 29.712 26.6088 30.736C27.1528 31.728 27.8888 32.528 28.8168 33.136C29.7768 33.712 30.8328 34 31.9848 34C33.8088 34 35.2968 33.36 36.4488 32.08C37.6328 30.8 38.2248 29.216 38.2248 27.328C38.2248 25.44 37.6328 23.856 36.4488 22.576C35.2968 21.264 33.8088 20.608 31.9848 20.608C30.8008 20.608 29.7448 20.912 28.8168 21.52C27.8888 22.128 27.1528 22.944 26.6088 23.968C26.0648 24.992 25.7928 26.112 25.7928 27.328Z" fill="white"/>
<path d="M55.4005 38.32C53.5445 38.32 52.0245 37.76 50.8405 36.64C49.6565 35.52 49.0325 34.08 48.9685 32.32V17.44H53.8165V30.592C53.8805 31.648 54.1845 32.496 54.7285 33.136C55.2725 33.776 56.1365 34.128 57.3205 34.192C58.4085 34.192 59.3845 33.872 60.2485 33.232C61.1125 32.56 61.7845 31.648 62.2645 30.496C62.7765 29.344 63.0325 28.048 63.0325 26.608V17.44H67.8805V37.504H63.5125L63.1285 32.8L63.3205 33.568C62.7125 34.944 61.6885 36.08 60.2485 36.976C58.8405 37.872 57.2245 38.32 55.4005 38.32Z" fill="white"/>
<path d="M83.7078 37.984C81.8198 37.984 80.1238 37.552 78.6198 36.688C77.1158 35.792 75.9318 34.528 75.0678 32.896C74.2038 31.264 73.7718 29.36 73.7718 27.184C73.7718 24.944 74.2358 23.04 75.1638 21.472C76.0918 19.904 77.3398 18.704 78.9078 17.872C80.5078 17.04 82.2998 16.624 84.2838 16.624C85.8198 16.624 87.2758 16.944 88.6518 17.584C90.0598 18.192 91.1638 19.056 91.9638 20.176L91.7718 21.856V0.208008H96.6198V37.504H91.7238V32.704L92.2518 34C91.2918 35.152 90.0758 36.112 88.6038 36.88C87.1638 37.616 85.5318 37.984 83.7078 37.984ZM85.1958 33.904C86.8918 33.904 88.2998 33.472 89.4198 32.608C90.5718 31.712 91.3398 30.528 91.7238 29.056V25.072C91.3718 23.728 90.5878 22.624 89.3718 21.76C88.1878 20.896 86.7958 20.464 85.1958 20.464C84.0438 20.464 82.9718 20.752 81.9798 21.328C80.9878 21.872 80.1878 22.656 79.5798 23.68C79.0038 24.672 78.7158 25.824 78.7158 27.136C78.7158 28.384 79.0038 29.52 79.5798 30.544C80.1878 31.568 80.9878 32.384 81.9798 32.992C82.9718 33.6 84.0438 33.904 85.1958 33.904Z" fill="white"/>
<path d="M113.595 37.984C111.291 37.984 109.307 37.536 107.643 36.64C105.979 35.712 104.699 34.448 103.803 32.848C102.907 31.216 102.459 29.376 102.459 27.328C102.459 25.344 102.955 23.552 103.947 21.952C104.971 20.32 106.331 19.024 108.027 18.064C109.723 17.104 111.611 16.624 113.691 16.624C116.379 16.624 118.603 17.408 120.363 18.976C122.155 20.512 123.355 22.688 123.963 25.504L107.595 31.168L106.443 28.384L119.595 23.584L118.587 24.256C118.203 23.232 117.595 22.352 116.763 21.616C115.931 20.848 114.795 20.464 113.355 20.464C111.563 20.464 110.091 21.088 108.939 22.336C107.819 23.552 107.259 25.12 107.259 27.04C107.259 29.088 107.867 30.736 109.083 31.984C110.299 33.232 111.835 33.856 113.691 33.856C114.555 33.856 115.387 33.712 116.187 33.424C116.987 33.104 117.739 32.688 118.443 32.176L120.651 35.776C119.627 36.448 118.491 36.992 117.243 37.408C116.027 37.792 114.811 37.984 113.595 37.984Z" fill="white"/>
<path d="M133.774 17.44L134.206 21.808L133.966 21.424C134.702 19.92 135.742 18.752 137.086 17.92C138.462 17.056 140.03 16.624 141.79 16.624C143.454 16.624 144.846 17.008 145.966 17.776C147.086 18.544 147.774 19.632 148.03 21.04L147.79 21.232C148.59 19.792 149.662 18.672 151.006 17.872C152.35 17.04 153.758 16.624 155.23 16.624C157.214 16.624 158.782 17.184 159.934 18.304C161.086 19.392 161.678 20.832 161.71 22.624V37.504H156.91V24.448C156.878 23.424 156.638 22.576 156.19 21.904C155.774 21.232 155.006 20.864 153.886 20.8C152.734 20.8 151.71 21.152 150.814 21.856C149.95 22.56 149.262 23.472 148.75 24.592C148.27 25.712 148.014 26.912 147.982 28.192V37.504H143.134V24.448C143.102 23.424 142.846 22.576 142.366 21.904C141.918 21.232 141.134 20.864 140.014 20.8C138.894 20.8 137.886 21.152 136.99 21.856C136.126 22.56 135.454 23.488 134.974 24.64C134.494 25.76 134.254 26.96 134.254 28.24V37.504H129.406V17.44H133.774Z" fill="white"/>
<path d="M170.931 47.152L184.131 17.44H188.595L175.635 47.152H170.931ZM175.923 37.648L166.275 17.44H171.699L179.715 35.2L175.923 37.648Z" fill="white"/>
</svg>
