<svg width="384" height="385" viewBox="0 0 384 385" fill="none" xmlns="http://www.w3.org/2000/svg">
<path d="M383.998 192.376C383.998 298.414 298.037 384.375 191.999 384.375C85.9608 384.375 0 298.414 0 192.376C0 86.3382 85.9608 0.377411 191.999 0.377411C298.037 0.377411 383.998 86.3382 383.998 192.376Z" fill="white"/>
<path fill-rule="evenodd" clip-rule="evenodd" d="M178.189 41.2956C178.554 41.2728 179.261 41.3868 179.718 41.5009C180.22 41.6378 180.973 42.1169 182.41 43.5542L184.851 43.3261C186.22 43.212 189.414 43.0979 191.992 43.0979C194.57 43.0979 197.764 43.1892 201.574 43.5542L202.304 42.7329C202.714 42.2994 203.513 41.7747 204.083 41.5694C204.791 41.3184 205.429 41.25 206.137 41.364C206.707 41.4325 208.35 41.7747 209.787 42.0941C211.224 42.4135 214.076 43.2348 216.106 43.9192C218.16 44.6036 220.213 45.3337 220.669 45.5847C221.148 45.8128 221.81 46.3147 222.152 46.7254C222.54 47.136 222.882 47.9117 223.042 48.6418C223.27 49.7825 223.338 49.8509 224.684 50.5582C225.46 50.9688 226.92 51.8129 227.924 52.4061C229.681 53.5012 229.772 53.524 230.479 53.2274C230.89 53.0449 231.666 52.908 232.19 52.908C232.784 52.908 233.559 53.1133 234.13 53.4099C234.654 53.7065 236.046 54.7788 237.209 55.8054C238.373 56.8321 240.198 58.6572 241.27 59.8663C242.343 61.0755 243.848 62.9462 244.624 64.0413C245.4 65.1364 246.563 67.0072 247.179 68.1935C247.795 69.3798 248.525 70.9312 248.799 71.6156C249.073 72.3001 249.529 73.8514 249.849 75.0378C250.168 76.2925 250.396 77.8895 250.396 78.8021C250.396 79.6918 250.236 80.9694 250.031 81.6539C249.826 82.3383 249.369 83.3649 249.027 83.9353C248.662 84.5056 247.841 85.4866 247.156 86.1026C246.495 86.7414 245.423 87.6084 244.807 88.0418C244.168 88.4753 242.639 89.2966 241.384 89.8898C240.13 90.483 238.145 91.3043 234.86 92.4906L234.266 92.0343C233.947 91.7834 233.582 91.2586 233.445 90.8936C233.285 90.3461 233.331 90.0951 233.65 89.6617C233.924 89.3423 234.905 88.8403 236.251 88.3612C237.438 87.9278 239.354 87.1293 240.472 86.5589C241.59 86.0114 243.141 85.0532 243.894 84.46C244.647 83.844 245.605 82.8402 246.016 82.2242C246.426 81.5626 246.814 80.65 246.905 80.0569C246.974 79.4865 246.905 78.2089 246.769 77.2051C246.632 76.2013 246.244 74.6043 245.902 73.6689C245.582 72.7335 244.989 71.2962 244.578 70.4749C244.168 69.6536 243.118 67.9197 242.229 66.5965C241.339 65.2733 239.879 63.3797 238.943 62.3759C238.031 61.3721 236.343 59.6838 235.225 58.6344C234.107 57.5849 232.966 56.6267 232.715 56.5126C232.464 56.3758 232.076 56.3301 231.848 56.4214C231.643 56.4898 231.118 57.2427 230.707 58.1096C230.274 58.9538 229.43 60.4139 228.814 61.3493C228.198 62.2846 226.829 63.9729 225.757 65.068C224.684 66.1859 223.361 67.395 222.791 67.76C222.221 68.1251 221.605 68.4216 221.422 68.4445C221.24 68.4445 220.806 68.2391 219.825 67.5091V58.4519C219.825 51.4707 219.757 49.2806 219.551 49.0068C219.392 48.8015 218.388 48.2995 217.315 47.9117C216.243 47.5011 214.19 46.8394 212.753 46.406C211.315 45.9953 209.034 45.4021 207.688 45.1056C205.498 44.6493 205.201 44.6265 204.927 44.923C204.745 45.1056 204.425 46.3375 204.22 47.6607C203.992 48.984 203.467 51.4023 203.057 53.0221C202.623 54.6419 201.916 57.0602 201.437 58.3834C200.981 59.7066 200.114 61.9652 199.475 63.4025C198.859 64.8398 197.672 67.2353 196.828 68.7182C195.984 70.2011 194.821 72.0719 194.205 72.8704C193.612 73.6917 192.882 74.4446 192.562 74.5815C192.182 74.7336 191.802 74.7336 191.421 74.5815C191.102 74.4446 190.372 73.7145 189.802 72.9389C189.231 72.1404 188.227 70.6346 187.611 69.5624C186.973 68.4901 186.037 66.8018 185.535 65.798C185.033 64.7942 184.281 63.1744 183.87 62.2162C183.436 61.2352 183.094 60.1173 183.094 59.7523C183.094 59.2732 183.277 58.931 183.71 58.6116C184.075 58.3378 184.554 58.1325 184.805 58.1553C185.056 58.1553 185.467 58.2922 185.718 58.4519C185.969 58.6344 186.379 59.2732 186.608 59.8891C186.836 60.5051 187.589 62.1249 188.273 63.5166C188.957 64.9083 190.03 66.9159 190.691 68.011C191.353 69.1061 191.923 70.0186 191.992 70.0186C192.06 70.0186 192.813 68.7639 193.703 67.2353C194.593 65.684 195.825 63.1972 196.463 61.6915C197.125 60.1857 198.015 57.8359 198.471 56.4442C198.927 55.0525 199.612 52.7027 199.954 51.1969C200.319 49.6912 200.684 48.117 200.752 47.7292C200.866 47.0904 200.821 46.9535 200.365 46.8394C200.091 46.771 197.193 46.6569 193.931 46.5885C190.669 46.52 186.95 46.5657 185.695 46.6569C184.417 46.771 183.277 46.9535 183.186 47.0448C183.071 47.136 183.163 48.2311 183.391 49.4403C183.779 51.4479 183.779 51.6989 183.459 52.178C183.254 52.4517 182.752 52.7483 182.341 52.8168C181.862 52.8852 181.429 52.8168 181.087 52.5886C180.813 52.3833 180.471 51.7901 180.334 51.2654C180.197 50.7178 179.877 49.1665 179.649 47.7748C179.398 46.3832 179.216 45.1968 179.216 45.1056C179.216 44.9915 179.033 44.8774 178.805 44.809C178.6 44.7405 177.14 44.9459 175.566 45.2881C173.991 45.6075 171.026 46.4288 168.949 47.1132C166.873 47.7976 165.048 48.4821 164.889 48.6418C164.66 48.8471 164.592 50.8775 164.615 58.1096C164.615 66.9844 164.592 67.3037 164.158 67.7372C163.908 67.9882 163.428 68.2619 163.063 68.3304C162.607 68.4216 162.219 68.2848 161.535 67.8057C161.033 67.4634 159.801 66.3456 158.797 65.3417C157.793 64.3379 156.402 62.6497 155.694 61.5774C154.987 60.5051 154.075 58.9766 153.664 58.1553C153.253 57.334 152.751 56.4898 152.546 56.2617C152.341 56.0336 152.113 55.851 151.999 55.8739C151.907 55.8739 150.789 56.7864 149.489 57.8815C148.211 58.9994 146.409 60.7105 145.496 61.7143C144.584 62.6953 143.169 64.452 142.371 65.5699C141.55 66.6878 140.272 68.8551 139.519 70.3609C138.766 71.8666 137.945 73.9655 137.648 75.0378C137.352 76.2013 137.146 77.707 137.146 78.8249C137.124 80.4904 137.192 80.7641 137.808 81.7908C138.196 82.4067 139.131 83.4106 139.861 84.0037C140.614 84.5969 142.348 85.6463 143.74 86.3308C145.109 87.0152 147.322 87.9278 148.645 88.3841C149.968 88.8403 152.478 89.5476 154.234 89.981C155.991 90.4145 158.911 91.0305 160.736 91.3499C162.561 91.6693 165.641 92.1256 167.581 92.3765C169.52 92.6275 173.124 92.9925 175.566 93.2207C179.079 93.5401 182.57 93.6085 192.22 93.6085C201.962 93.6085 205.361 93.5401 209.102 93.2207C211.68 92.9925 215.468 92.6047 217.544 92.3537C219.62 92.0799 222.129 91.7377 223.133 91.5552C224.137 91.3727 225.232 91.2358 225.574 91.2358C226 91.2358 226.365 91.4488 226.669 91.8746C226.943 92.2168 227.148 92.6959 227.148 92.9469C227.148 93.1978 226.966 93.6541 226.738 93.9507C226.373 94.407 225.871 94.5439 223.019 95.023C221.194 95.3196 217.817 95.7758 215.49 96.0268C213.163 96.2778 209.832 96.5743 208.076 96.6884C206.319 96.8253 201.962 97.0534 198.38 97.1903C192.767 97.4413 190.805 97.4185 184.007 97.0763C179.672 96.8709 174.539 96.5515 172.6 96.369C170.661 96.1865 167.512 95.8215 165.641 95.5477C163.748 95.2967 160.828 94.8405 159.139 94.5211C157.451 94.2017 154.668 93.6085 152.98 93.175C151.291 92.7416 148.69 91.9887 147.208 91.4868C145.747 90.9621 143.489 90.0267 142.188 89.3879C140.911 88.7491 139.245 87.7909 138.493 87.2433C137.74 86.7186 136.622 85.7376 136.029 85.0532C135.413 84.3688 134.637 83.2509 134.318 82.5664C133.861 81.6311 133.679 80.8782 133.61 79.6006C133.565 78.5511 133.702 77.1367 133.93 75.9503C134.158 74.8781 134.568 73.3495 134.842 72.5282C135.139 71.7069 135.641 70.4521 135.96 69.7449C136.28 69.0148 137.101 67.5319 137.762 66.4368C138.401 65.3189 139.542 63.6535 140.249 62.7181C140.956 61.7827 142.439 60.0488 143.534 58.8625C144.652 57.6762 146.432 55.9879 147.504 55.0754C148.576 54.1628 149.786 53.273 150.173 53.0677C150.607 52.8396 151.451 52.6799 152.113 52.6799C152.774 52.7027 153.573 52.8396 153.892 52.9993C154.417 53.273 154.577 53.2274 155.831 52.4745C156.584 51.9954 158.09 51.1513 159.185 50.5582C160.782 49.6912 161.193 49.3718 161.193 48.984C161.193 48.6874 161.398 48.0486 161.626 47.5467C161.831 47.0448 162.333 46.3832 162.698 46.0638C163.063 45.7444 164.227 45.1512 165.299 44.7177C166.371 44.3071 168.47 43.6226 169.976 43.1892C171.482 42.7557 173.786 42.1625 175.109 41.8659C176.432 41.5466 177.801 41.2956 178.189 41.2956ZM157.474 55.4404L156.402 56.102C157.52 58.1325 158.204 59.2504 158.66 59.8663C159.094 60.5051 159.847 61.4405 160.326 61.988L161.193 62.9462C161.193 55.5088 161.17 53.3643 161.124 53.3643C161.101 53.3643 160.508 53.6837 159.824 54.0715C159.139 54.4594 158.09 55.0754 157.474 55.4404ZM223.612 62.49C223.818 62.3074 224.434 61.5774 224.958 60.893C225.483 60.2085 226.35 58.931 226.852 58.0412C227.377 57.1514 227.742 56.3758 227.65 56.2845C227.536 56.1932 226.601 55.6001 225.529 54.9613C224.456 54.3225 223.521 53.8206 223.43 53.8206C223.316 53.8206 223.247 55.851 223.247 58.3378C223.224 62.5356 223.247 62.8094 223.612 62.49Z" fill="#333333"/>
<path d="M91.3136 96.5026L98.6885 89.1277L297.809 288.248L290.434 295.623L91.3136 96.5026Z" fill="#333333"/>
<path d="M95.001 291.935L87.6262 284.56L286.746 85.4403L294.121 92.8151L95.001 291.935Z" fill="#333333"/>
<path d="M65.523 252.54C61.8591 252.54 58.6291 252.061 55.8329 251.103C53.1332 250.146 51.0601 248.789 49.6139 247.034C48.1676 245.278 47.4444 243.177 47.4444 240.73V211.205H58.147V241.209C58.147 242.432 58.4362 243.47 59.0147 244.321C59.5933 245.119 60.4128 245.73 61.4734 246.156C62.6305 246.582 63.9803 246.794 65.523 246.794C66.9693 246.794 68.2228 246.582 69.2834 246.156C70.4404 245.73 71.3082 245.119 71.8867 244.321C72.4652 243.47 72.7545 242.432 72.7545 241.209V147.608C72.7545 146.438 72.4652 145.427 71.8867 144.576C71.3082 143.725 70.4404 143.087 69.2834 142.661C68.2228 142.235 66.9693 142.023 65.523 142.023C63.9803 142.023 62.6305 142.235 61.4734 142.661C60.4128 143.087 59.5933 143.725 59.0147 144.576C58.4362 145.427 58.147 146.438 58.147 147.608V177.611H47.4444V148.087C47.4444 145.693 48.1676 143.619 49.6139 141.863C51.0601 140.054 53.1332 138.671 55.8329 137.714C58.6291 136.756 61.8591 136.277 65.523 136.277C69.2834 136.277 72.5134 136.756 75.2132 137.714C77.9129 138.671 79.9859 140.054 81.4322 141.863C82.9749 143.619 83.7463 145.693 83.7463 148.087V240.73C83.7463 243.124 82.9749 245.225 81.4322 247.034C79.9859 248.789 77.9129 250.146 75.2132 251.103C72.5134 252.061 69.2834 252.54 65.523 252.54ZM72.7545 195.645H55.6883V190.06H72.7545V195.645Z" fill="#333333"/>
<path d="M297.95 251.981L308.653 194.129L298.095 136.836H308.942L317.186 191.257L325.719 136.836H336.566L325.863 194.449L336.421 251.981H325.574L317.475 197.561L308.797 251.981H297.95Z" fill="#333333"/>
<path d="M175.063 321.47C173.895 321.47 172.873 321.207 171.997 320.681C171.141 320.136 170.479 319.367 170.011 318.374C169.564 317.381 169.34 316.184 169.34 314.783V308.796H171.501V314.841C171.501 315.834 171.647 316.681 171.939 317.381C172.231 318.063 172.64 318.588 173.165 318.958C173.691 319.309 174.324 319.484 175.063 319.484C175.803 319.484 176.436 319.299 176.961 318.929C177.506 318.559 177.915 318.034 178.188 317.352C178.48 316.651 178.626 315.814 178.626 314.841V304.913C178.626 303.316 178.275 302.138 177.575 301.379C176.874 300.62 175.891 300.24 174.625 300.24H172.932V298.284H174.596C175.277 298.284 175.881 298.138 176.407 297.846C176.952 297.534 177.37 297.057 177.662 296.415C177.974 295.753 178.129 294.926 178.129 293.933V285.056C178.129 284.121 178.003 283.343 177.75 282.72C177.497 282.077 177.137 281.591 176.669 281.26C176.202 280.909 175.638 280.734 174.976 280.734C174.294 280.734 173.71 280.909 173.224 281.26C172.737 281.61 172.367 282.107 172.114 282.749C171.88 283.391 171.764 284.16 171.764 285.056V290.954H169.603V285.056C169.603 283.79 169.817 282.691 170.245 281.756C170.673 280.802 171.287 280.062 172.085 279.537C172.883 279.011 173.847 278.748 174.976 278.748C176.085 278.748 177.039 279.001 177.837 279.508C178.636 280.014 179.249 280.744 179.677 281.698C180.105 282.632 180.319 283.751 180.319 285.056V293.67C180.319 294.741 180.183 295.666 179.911 296.444C179.638 297.203 179.239 297.817 178.713 298.284C178.188 298.751 177.555 299.043 176.815 299.16V299.218C178.081 299.355 179.064 299.939 179.765 300.97C180.485 301.983 180.845 303.365 180.845 305.117V314.783C180.845 316.165 180.611 317.352 180.144 318.345C179.677 319.338 179.005 320.107 178.129 320.652C177.273 321.197 176.251 321.47 175.063 321.47Z" fill="#333333"/>
<path d="M192.888 321.47C192.012 321.47 191.223 321.314 190.522 321.002C189.841 320.691 189.247 320.243 188.741 319.659C188.254 319.075 187.884 318.355 187.631 317.498C187.378 316.642 187.252 315.668 187.252 314.578V285.348C187.252 283.985 187.476 282.817 187.923 281.844C188.371 280.851 189.004 280.092 189.821 279.566C190.659 279.021 191.642 278.748 192.771 278.748C193.9 278.748 194.873 279.021 195.691 279.566C196.509 280.092 197.141 280.841 197.589 281.814C198.037 282.768 198.261 283.907 198.261 285.231V290.458H196.1V285.173C196.1 284.258 195.963 283.469 195.691 282.807C195.418 282.145 195.029 281.639 194.523 281.289C194.036 280.938 193.462 280.763 192.8 280.763C192.041 280.763 191.418 280.958 190.931 281.347C190.444 281.737 190.075 282.272 189.821 282.953C189.588 283.635 189.471 284.413 189.471 285.289C189.471 285.387 189.471 285.484 189.471 285.581C189.471 285.659 189.471 285.747 189.471 285.844V314.695C189.471 315.785 189.617 316.681 189.909 317.381C190.221 318.082 190.639 318.608 191.165 318.958C191.69 319.289 192.274 319.455 192.917 319.455C193.54 319.455 194.104 319.289 194.61 318.958C195.136 318.608 195.555 318.092 195.866 317.411C196.178 316.729 196.333 315.853 196.333 314.783V300.094C196.333 299.082 196.178 298.245 195.866 297.583C195.574 296.902 195.165 296.405 194.64 296.094C194.134 295.763 193.569 295.597 192.946 295.597C192.206 295.597 191.574 295.792 191.048 296.181C190.542 296.571 190.152 297.106 189.88 297.787C189.607 298.469 189.471 299.238 189.471 300.094V296.567C189.627 296.12 189.938 295.666 190.289 295.218C190.639 294.751 191.087 294.371 191.632 294.079C192.177 293.767 192.839 293.612 193.618 293.612C194.591 293.612 195.448 293.855 196.187 294.342C196.927 294.809 197.501 295.52 197.91 296.473C198.338 297.427 198.553 298.586 198.553 299.948V314.695C198.553 316.116 198.319 317.333 197.852 318.345C197.385 319.357 196.723 320.136 195.866 320.681C195.029 321.207 194.036 321.47 192.888 321.47Z" fill="#333333"/>
<path d="M210.537 321.47C209.388 321.47 208.395 321.197 207.558 320.652C206.721 320.107 206.079 319.348 205.631 318.374C205.203 317.401 204.989 316.252 204.989 314.928V309.38H207.179V314.987C207.179 315.902 207.315 316.7 207.587 317.381C207.86 318.043 208.249 318.559 208.755 318.929C209.262 319.279 209.855 319.455 210.537 319.455C211.218 319.455 211.812 319.279 212.318 318.929C212.824 318.559 213.213 318.043 213.486 317.381C213.759 316.7 213.895 315.902 213.895 314.987V300.124C213.895 299.189 213.759 298.391 213.486 297.729C213.213 297.067 212.834 296.571 212.347 296.24C211.861 295.889 211.296 295.714 210.654 295.714C209.661 295.714 208.853 296.113 208.23 296.911C207.607 297.69 207.295 298.741 207.295 300.065C207.295 300.571 207.295 301.087 207.295 301.613C207.295 302.119 207.295 302.625 207.295 303.131H205.193L205.748 279.04H215.559V281.055H207.733L207.325 296.503H207.412C207.568 296.094 207.811 295.685 208.142 295.276C208.473 294.848 208.901 294.497 209.427 294.225C209.972 293.933 210.605 293.787 211.325 293.787C212.299 293.787 213.145 294.04 213.866 294.546C214.586 295.033 215.141 295.743 215.53 296.678C215.919 297.612 216.114 298.732 216.114 300.036V314.928C216.114 316.252 215.89 317.401 215.443 318.374C214.995 319.348 214.352 320.107 213.515 320.652C212.678 321.197 211.685 321.47 210.537 321.47Z" fill="#333333"/>
<path d="M183.423 188.669L190.833 181.26L198.243 188.67L190.833 196.08L183.423 188.669Z" fill="#333333"/>
</svg>
