<svg width="480" height="266" viewBox="0 0 480 266" fill="none" xmlns="http://www.w3.org/2000/svg">
<path d="M360.724 144.393C360.724 211.066 306.675 265.116 240.001 265.116C173.327 265.116 119.277 211.066 119.277 144.393C119.277 77.7192 173.327 23.6696 240.001 23.6696C306.675 23.6696 360.724 77.7192 360.724 144.393Z" fill="#FAA818"/>
<path d="M177.477 86.4397L182.114 81.8027L307.316 207.003L302.678 211.641L177.477 86.4397Z" fill="#FAA818"/>
<path d="M179.795 209.322L175.158 204.685L300.36 79.4841L304.997 84.1212L179.795 209.322Z" fill="#FAA818"/>
<path d="M235.393 144.392L240.052 139.733L244.711 144.392L240.052 149.051L235.393 144.392Z" fill="#FAA818"/>
<path d="M43.158 265.116V212.562H0.328125V202.125C1.74399 186.255 3.15985 171.606 4.57571 158.178C6.22755 144.627 7.7614 131.748 9.17726 119.541C10.5931 107.211 12.127 94.9428 13.7788 82.7353C15.4307 70.4058 17.2005 57.5879 19.0883 44.2817C21.2121 30.9755 23.5719 16.5099 26.1676 0.884277H64.0419V202.125H82.4481V212.562H64.0419V265.116H43.158ZM20.1502 202.125H43.158L43.5119 10.0399H42.0961C39.9723 22.6136 38.0845 35.1871 36.4326 47.7608C34.7808 60.3345 33.1289 72.7862 31.4771 85.1158C30.0612 97.4453 28.6454 109.653 27.2295 121.738C25.8136 133.824 24.5158 145.787 23.3359 157.628C22.156 169.347 21.2121 180.884 20.5042 192.236L20.1502 202.125Z" fill="#333333"/>
<path d="M440.381 265.115V212.562H397.552V202.125C398.968 186.255 400.383 171.606 401.799 158.178C403.451 144.627 404.985 131.749 406.401 119.541C407.817 107.211 409.351 94.943 411.002 82.7355C412.654 70.4059 414.424 57.588 416.312 44.2819C418.436 30.9757 420.795 16.5098 423.391 0.884247H461.265V202.125H479.672V212.562H461.265V265.115H440.381ZM417.374 202.125H440.381L440.736 10.0399H439.32C437.196 22.6136 435.308 35.1873 433.656 47.761C432.004 60.3347 430.352 72.7864 428.701 85.1159C427.285 97.4455 425.869 109.653 424.453 121.738C423.037 133.824 421.739 145.787 420.559 157.628C419.38 169.348 418.436 180.884 417.728 192.237L417.374 202.125Z" fill="#333333"/>
</svg>
