<svg width="758" height="460" viewBox="0 0 758 460" fill="none" xmlns="http://www.w3.org/2000/svg">
<path d="M608.668 229.67C608.668 356.513 505.842 459.34 378.998 459.34C252.154 459.34 149.328 356.513 149.328 229.67C149.328 102.827 252.154 0.000366621 378.998 0.000366621C505.842 0.000366621 608.668 102.827 608.668 229.67Z" fill="#BD0017"/>
<path d="M260.05 119.417L268.872 110.595L507.061 348.784L498.239 357.605L260.05 119.417Z" fill="white"/>
<path d="M264.461 353.194L255.639 344.373L493.828 106.185L502.65 115.006L264.461 353.194Z" fill="white"/>
<path d="M370.232 229.668L379.095 220.804L387.96 229.669L379.096 238.532L370.232 229.668Z" fill="white"/>
<path d="M379.079 138.558C375.287 138.558 371.902 138.293 368.922 137.761C366.078 137.23 363.844 136.432 362.219 135.369C360.594 134.306 359.781 132.999 359.781 131.449V49.1271C359.781 47.5768 360.594 46.2701 362.219 45.207C363.844 44.144 366.078 43.3467 368.922 42.8151C371.902 42.2836 375.287 42.0178 379.079 42.0178C382.736 42.0178 385.986 42.2836 388.83 42.8151C391.809 43.3467 394.111 44.144 395.736 45.207C397.497 46.2701 398.377 47.5768 398.377 49.1271V131.449C398.377 132.999 397.497 134.306 395.736 135.369C394.111 136.432 391.809 137.23 388.83 137.761C385.986 138.293 382.736 138.558 379.079 138.558ZM378.876 134.771C380.366 134.771 381.652 134.66 382.736 134.439C383.819 134.173 384.632 133.819 385.173 133.376C385.715 132.933 385.986 132.379 385.986 131.715V48.8614C385.986 48.1969 385.715 47.6433 385.173 47.2003C384.632 46.7574 383.819 46.4252 382.736 46.2037C381.652 45.9379 380.366 45.805 378.876 45.805C377.386 45.805 376.1 45.9379 375.017 46.2037C374.069 46.4252 373.324 46.7574 372.782 47.2003C372.24 47.6433 371.969 48.1969 371.969 48.8614V131.715C371.969 132.379 372.24 132.933 372.782 133.376C373.324 133.819 374.069 134.173 375.017 134.439C376.1 134.66 377.386 134.771 378.876 134.771Z" fill="white"/>
<path d="M233.716 305.49V275.33H209.137V269.34C209.949 260.233 210.762 251.826 211.574 244.119C212.522 236.343 213.403 228.952 214.215 221.946C215.028 214.87 215.908 207.83 216.856 200.824C217.804 193.748 218.82 186.392 219.903 178.756C221.122 171.12 222.476 162.818 223.966 153.851H245.701V269.34H256.264V275.33H245.701V305.49H233.716ZM220.512 269.34H233.716L233.919 159.105H233.107C231.888 166.321 230.805 173.537 229.857 180.753C228.909 187.968 227.961 195.114 227.013 202.19C226.2 209.266 225.388 216.272 224.575 223.207C223.763 230.143 223.018 237.009 222.341 243.804C221.663 250.53 221.122 257.15 220.716 263.665L220.512 269.34Z" fill="white"/>
<path d="M530.843 305.49V275.33H506.264V269.34C507.076 260.233 507.889 251.826 508.701 244.119C509.649 236.343 510.53 228.952 511.342 221.946C512.155 214.87 513.035 207.83 513.983 200.824C514.931 193.748 515.947 186.392 517.03 178.756C518.249 171.12 519.603 162.818 521.093 153.851H542.828V269.34H553.391V275.33H542.828V305.49H530.843ZM517.639 269.34H530.843L531.046 159.105H530.234C529.015 166.321 527.932 173.537 526.984 180.753C526.036 187.968 525.088 195.114 524.14 202.19C523.327 209.266 522.515 216.272 521.702 223.207C520.89 230.143 520.145 237.009 519.468 243.804C518.79 250.53 518.249 257.15 517.842 263.665L517.639 269.34Z" fill="white"/>
<path d="M353.673 382.835V371.452H344.396V369.192C344.703 365.754 345.01 362.582 345.316 359.673C345.674 356.738 346.006 353.949 346.313 351.305C346.62 348.634 346.952 345.977 347.31 343.333C347.668 340.663 348.051 337.886 348.46 335.005C348.92 332.123 349.431 328.989 349.993 325.605H358.196V369.192H362.183V371.452H358.196V382.835H353.673ZM348.69 369.192H353.673L353.75 327.588H353.443C352.983 330.311 352.574 333.035 352.216 335.758C351.859 338.481 351.501 341.178 351.143 343.849C350.836 346.519 350.53 349.163 350.223 351.781C349.916 354.398 349.635 356.989 349.38 359.554C349.124 362.092 348.92 364.591 348.766 367.05L348.69 369.192Z" fill="white"/>
<path d="M378.926 383.033C377.495 383.033 376.218 382.874 375.093 382.557C374.02 382.24 373.177 381.764 372.563 381.129C371.95 380.495 371.643 379.715 371.643 378.789V329.65C371.643 328.725 371.95 327.945 372.563 327.31C373.177 326.676 374.02 326.2 375.093 325.883C376.218 325.565 377.495 325.407 378.926 325.407C380.306 325.407 381.533 325.565 382.606 325.883C383.731 326.2 384.6 326.676 385.213 327.31C385.877 327.945 386.21 328.725 386.21 329.65V378.789C386.21 379.715 385.877 380.495 385.213 381.129C384.6 381.764 383.731 382.24 382.606 382.557C381.533 382.874 380.306 383.033 378.926 383.033ZM378.85 380.772C379.412 380.772 379.898 380.706 380.306 380.574C380.715 380.415 381.022 380.204 381.226 379.94C381.431 379.675 381.533 379.345 381.533 378.948V329.492C381.533 329.095 381.431 328.765 381.226 328.5C381.022 328.236 380.715 328.038 380.306 327.905C379.898 327.747 379.412 327.667 378.85 327.667C378.288 327.667 377.802 327.747 377.393 327.905C377.035 328.038 376.754 328.236 376.55 328.5C376.345 328.765 376.243 329.095 376.243 329.492V378.948C376.243 379.345 376.345 379.675 376.55 379.94C376.754 380.204 377.035 380.415 377.393 380.574C377.802 380.706 378.288 380.772 378.85 380.772Z" fill="white"/>
<path d="M405.713 382.835V371.452H396.437V369.192C396.743 365.754 397.05 362.582 397.357 359.673C397.715 356.738 398.047 353.949 398.353 351.305C398.66 348.634 398.992 345.977 399.35 343.333C399.708 340.663 400.091 337.886 400.5 335.005C400.96 332.123 401.471 328.989 402.033 325.605H410.237V369.192H414.223V371.452H410.237V382.835H405.713ZM400.73 369.192H405.713L405.79 327.588H405.483C405.023 330.311 404.614 333.035 404.257 335.758C403.899 338.481 403.541 341.178 403.183 343.849C402.877 346.519 402.57 349.163 402.263 351.781C401.957 354.398 401.676 356.989 401.42 359.554C401.165 362.092 400.96 364.591 400.807 367.05L400.73 369.192Z" fill="white"/>
<path d="M43.6306 360.686V308.133H0.800781V297.696C2.21664 281.826 3.63251 267.177 5.04837 253.749C6.70021 240.198 8.23406 227.319 9.64992 215.112C11.0658 202.782 12.5996 190.514 14.2515 178.306C15.9033 165.977 17.6731 153.159 19.561 139.853C21.6848 126.547 24.0445 112.081 26.6403 96.4552H64.5146V297.696H82.9208V308.133H64.5146V360.686H43.6306ZM20.6229 297.696H43.6306L43.9846 105.611H42.5687C40.4449 118.185 38.5571 130.758 36.9053 143.332C35.2534 155.906 33.6016 168.357 31.9498 180.687C30.5339 193.016 29.118 205.224 27.7022 217.309C26.2863 229.395 24.9884 241.358 23.8085 253.199C22.6287 264.919 21.6847 276.455 20.9768 287.808L20.6229 297.696Z" fill="#333333"/>
<path d="M717.909 351.165V298.612H675.08V288.174C676.495 272.305 677.911 257.656 679.327 244.227C680.979 230.677 682.513 217.798 683.929 205.591C685.344 193.261 686.878 180.993 688.53 168.785C690.182 156.456 691.952 143.638 693.84 130.332C695.963 117.025 698.323 102.559 700.919 86.9339H738.793V288.174H757.199V298.612H738.793V351.165H717.909ZM694.902 288.174H717.909L718.263 96.0895H716.847C714.724 108.663 712.836 121.237 711.184 133.811C709.532 146.384 707.88 158.836 706.229 171.166C704.813 183.495 703.397 195.703 701.981 207.788C700.565 219.873 699.267 231.837 698.087 243.678C696.907 255.397 695.963 266.933 695.256 278.286L694.902 288.174Z" fill="#333333"/>
</svg>
