<svg width="1920" height="1080" viewBox="0 0 1920 1080" fill="none" xmlns="http://www.w3.org/2000/svg">
<mask id="mask0_612_275" style="mask-type:alpha" maskUnits="userSpaceOnUse" x="0" y="0" width="1920" height="1080">
<rect width="1920" height="1080" fill="#BD0017"/>
</mask>
<g mask="url(#mask0_612_275)">
<rect x="1225.42" y="623.87" width="15" height="1000" transform="rotate(-101.108 1225.42 623.87)" fill="white"/>
<rect x="1816.32" y="1012.31" width="15" height="1000" transform="rotate(168.892 1816.32 1012.31)" fill="white"/>
<path d="M2034 460.024C2068.58 636.154 1953.83 806.968 1777.7 841.548C1601.57 876.128 1430.76 761.38 1396.18 585.25C1361.6 409.119 1476.35 238.305 1652.48 203.725C1828.61 169.145 1999.42 283.894 2034 460.024Z" fill="white"/>
<path fill-rule="evenodd" clip-rule="evenodd" d="M1642.88 276.194C1643.48 276.037 1644.69 275.996 1645.49 276.036C1646.37 276.1 1647.77 276.65 1650.63 278.569L1654.61 277.394C1656.85 276.758 1662.12 275.527 1666.4 274.686C1670.68 273.846 1676.01 272.956 1682.46 272.32L1683.41 270.717C1683.95 269.863 1685.1 268.731 1685.98 268.204C1687.08 267.557 1688.12 267.235 1689.33 267.194C1690.3 267.121 1693.14 267.154 1695.63 267.216C1698.12 267.278 1703.12 267.712 1706.72 268.187C1710.35 268.654 1714 269.197 1714.84 269.465C1715.71 269.688 1716.97 270.306 1717.68 270.876C1718.46 271.432 1719.28 272.608 1719.78 273.769C1720.53 275.589 1720.67 275.681 1723.13 276.416C1724.56 276.846 1727.26 277.772 1729.12 278.429C1732.39 279.676 1732.55 279.684 1733.63 278.96C1734.25 278.523 1735.5 278.043 1736.37 277.872C1737.35 277.678 1738.71 277.767 1739.75 278.073C1740.72 278.395 1743.38 279.722 1745.65 281.048C1747.92 282.373 1751.54 284.81 1753.72 286.469C1755.89 288.127 1759 290.744 1760.65 292.31C1762.3 293.876 1764.84 296.604 1766.25 298.373C1767.66 300.143 1769.38 302.482 1770.06 303.529C1770.73 304.577 1772 307.005 1772.91 308.871C1773.85 310.851 1774.75 313.429 1775.05 314.945C1775.34 316.423 1775.49 318.597 1775.37 319.801C1775.26 321.005 1774.83 322.859 1774.45 323.918C1774.03 324.984 1772.99 326.881 1772.05 328.128C1771.16 329.405 1769.66 331.194 1768.78 332.115C1767.86 333.043 1765.59 334.906 1763.7 336.301C1761.81 337.695 1758.78 339.707 1753.71 342.748L1752.58 342.184C1751.96 341.871 1751.19 341.119 1750.84 340.557C1750.4 339.7 1750.39 339.268 1750.78 338.444C1751.13 337.824 1752.59 336.67 1754.67 335.436C1756.5 334.329 1759.43 332.378 1761.1 331.066C1762.78 329.792 1765.04 327.694 1766.1 326.463C1767.15 325.195 1768.41 323.215 1768.89 322.058C1769.36 320.825 1769.7 319.183 1769.66 318.168C1769.59 317.198 1769.06 315.098 1768.51 313.475C1767.95 311.853 1766.79 309.327 1765.91 307.884C1765.08 306.435 1763.62 304.241 1762.67 303.011C1761.72 301.78 1759.41 299.243 1757.5 297.335C1755.6 295.427 1752.55 292.758 1750.67 291.396C1748.83 290.026 1745.47 287.772 1743.27 286.394C1741.08 285.015 1738.87 283.796 1738.41 283.688C1737.95 283.543 1737.29 283.593 1736.94 283.819C1736.63 284 1736 285.421 1735.6 286.995C1735.16 288.539 1734.23 291.239 1733.51 292.994C1732.79 294.749 1731.07 297.999 1729.65 300.168C1728.23 302.374 1726.43 304.814 1725.6 305.606C1724.77 306.399 1723.84 307.092 1723.55 307.19C1723.24 307.249 1722.46 307.05 1720.59 306.157L1717.64 291.113C1715.36 279.517 1714.53 275.901 1714.1 275.514C1713.77 275.225 1711.94 274.718 1710.03 274.424C1708.12 274.091 1704.49 273.662 1701.96 273.411C1699.44 273.197 1695.46 272.956 1693.12 272.902C1689.34 272.859 1688.84 272.918 1688.48 273.5C1688.24 273.862 1688.11 276.013 1688.2 278.277C1688.25 280.55 1688.17 284.738 1688.01 287.562C1687.82 290.394 1687.44 294.641 1687.07 296.996C1686.74 299.342 1686.04 303.377 1685.45 305.972C1684.89 308.56 1683.7 312.926 1682.79 315.665C1681.87 318.403 1680.55 321.89 1679.78 323.417C1679.07 324.975 1678.1 326.463 1677.61 326.795C1677.03 327.171 1676.4 327.295 1675.72 327.167C1675.14 327.044 1673.69 326.069 1672.49 324.967C1671.28 323.826 1669.13 321.653 1667.75 320.073C1666.34 318.5 1664.24 316.001 1663.08 314.497C1661.92 312.993 1660.14 310.548 1659.14 309.091C1658.1 307.603 1657.17 305.857 1657.05 305.251C1656.89 304.455 1657.09 303.827 1657.7 303.155C1658.22 302.582 1658.95 302.084 1659.37 302.04C1659.79 301.959 1660.51 302.052 1660.98 302.235C1661.46 302.457 1662.35 303.384 1662.93 304.333C1663.51 305.281 1665.29 307.726 1666.88 309.815C1668.47 311.903 1670.91 314.888 1672.36 316.491C1673.82 318.094 1675.06 319.424 1675.18 319.402C1675.29 319.38 1676.13 317.05 1677.11 314.221C1678.08 311.354 1679.32 306.822 1679.89 304.112C1680.5 301.395 1681.21 297.202 1681.51 294.742C1681.82 292.281 1682.19 288.155 1682.26 285.542C1682.38 282.922 1682.47 280.189 1682.46 279.522C1682.44 278.424 1682.32 278.211 1681.53 278.171C1681.05 278.146 1676.2 278.902 1670.76 279.852C1665.32 280.802 1659.15 282.091 1657.1 282.651C1655.01 283.257 1653.18 283.933 1653.06 284.114C1652.9 284.303 1653.41 286.092 1654.18 288.026C1655.48 291.234 1655.56 291.651 1655.19 292.551C1654.93 293.073 1654.2 293.729 1653.54 293.977C1652.76 294.246 1652.02 294.274 1651.38 294.007C1650.86 293.755 1650.1 292.881 1649.7 292.054C1649.29 291.19 1648.25 288.717 1647.42 286.48C1646.55 284.25 1645.86 282.339 1645.83 282.187C1645.79 281.998 1645.45 281.868 1645.05 281.829C1644.69 281.782 1642.33 282.599 1639.83 283.681C1637.32 284.725 1632.66 287.056 1629.43 288.87C1626.21 290.684 1623.4 292.416 1623.19 292.733C1622.88 293.149 1623.42 296.544 1625.82 308.549C1628.71 323.29 1628.78 323.828 1628.2 324.689C1627.87 325.188 1627.16 325.799 1626.58 326.032C1625.85 326.332 1625.16 326.231 1623.87 325.658C1622.92 325.254 1620.51 323.799 1618.52 322.459C1616.52 321.119 1613.66 318.768 1612.13 317.218C1610.61 315.668 1608.6 313.426 1607.65 312.196C1606.7 310.966 1605.59 309.727 1605.17 309.415C1604.76 309.103 1604.32 308.874 1604.14 308.95C1603.98 308.979 1602.42 310.86 1600.62 313.103C1598.86 315.376 1596.43 318.806 1595.24 320.771C1594.04 322.698 1592.27 326.077 1591.31 328.194C1590.31 330.319 1588.89 334.336 1588.13 337.082C1587.37 339.829 1586.69 343.583 1586.55 345.461C1586.44 347.49 1586.59 350.058 1586.95 351.915C1587.46 354.689 1587.66 355.121 1589.02 356.625C1589.86 357.522 1591.74 358.884 1593.15 359.632C1594.59 360.371 1597.81 361.549 1600.35 362.232C1602.85 362.922 1606.82 363.717 1609.17 364.043C1611.51 364.369 1615.91 364.726 1618.97 364.873C1622.03 365.02 1627.08 365.091 1630.22 365.026C1633.35 364.961 1638.62 364.715 1641.92 364.499C1645.22 364.284 1651.33 363.715 1655.46 363.297C1661.4 362.682 1667.22 361.658 1683.25 358.51C1699.43 355.334 1705.05 354.111 1711.16 352.361C1715.37 351.141 1721.54 349.262 1724.9 348.168C1728.26 347.036 1732.32 345.649 1733.93 345.019C1735.53 344.388 1737.31 343.804 1737.88 343.692C1738.58 343.553 1739.26 343.788 1739.9 344.396C1740.47 344.875 1740.97 345.604 1741.05 346.021C1741.13 346.438 1740.98 347.255 1740.69 347.822C1740.24 348.699 1739.45 349.09 1734.87 350.816C1731.93 351.904 1726.47 353.763 1722.69 354.939C1718.91 356.114 1713.47 357.693 1710.59 358.455C1707.72 359.256 1700.55 361.056 1694.65 362.451C1685.41 364.698 1682.14 365.3 1670.74 366.949C1663.47 368.021 1654.84 369.165 1651.56 369.494C1648.28 369.823 1642.93 370.244 1639.73 370.399C1636.51 370.6 1631.51 370.794 1628.6 370.814C1625.69 370.834 1620.87 370.757 1617.93 370.587C1614.98 370.418 1610.42 370.015 1607.79 369.665C1605.19 369.27 1601.14 368.453 1598.77 367.816C1596.44 367.171 1593.36 366.123 1591.93 365.459C1590.51 364.833 1588.33 363.568 1587.12 362.625C1585.88 361.689 1584.23 360.085 1583.47 359.052C1582.41 357.647 1581.86 356.456 1581.33 354.356C1580.91 352.628 1580.68 350.234 1580.67 348.189C1580.7 346.334 1580.88 343.661 1581.07 342.207C1581.29 340.746 1581.72 338.499 1582.02 337.22C1582.31 335.903 1583.19 333.172 1583.93 331.137C1584.63 329.072 1585.98 325.934 1586.85 324.149C1587.72 322.365 1589.62 319.002 1591.05 316.674C1592.52 314.339 1594.93 310.954 1596.41 309.089C1597.89 307.223 1599.61 305.351 1600.19 304.884C1600.83 304.363 1602.18 303.823 1603.28 303.607C1604.39 303.429 1605.76 303.396 1606.34 303.557C1607.3 303.841 1607.55 303.713 1609.39 302.053C1610.49 301.012 1612.71 299.119 1614.34 297.777C1616.71 295.816 1617.29 295.151 1617.16 294.507C1617.06 294.014 1617.2 292.886 1617.41 291.978C1617.59 291.078 1618.21 289.815 1618.71 289.166C1619.21 288.516 1620.95 287.151 1622.59 286.082C1624.24 285.05 1627.5 283.229 1629.86 282.018C1632.22 280.806 1635.85 279.07 1637.95 278.146C1640.05 277.184 1642.24 276.32 1642.88 276.194ZM1613.09 306.444L1611.52 307.893C1614.04 310.901 1615.54 312.534 1616.5 313.409C1617.43 314.328 1618.99 315.636 1619.96 316.39L1621.71 317.699C1619.29 305.345 1618.55 301.79 1618.47 301.805C1618.44 301.813 1617.56 302.537 1616.55 303.404C1615.53 304.271 1613.99 305.637 1613.09 306.444ZM1725.24 296.585C1725.53 296.215 1726.31 294.801 1726.96 293.493C1727.61 292.185 1728.63 289.781 1729.17 288.139C1729.76 286.49 1730.11 285.083 1729.93 284.961C1729.71 284.846 1727.96 284.166 1725.97 283.455C1723.98 282.743 1722.26 282.215 1722.11 282.245C1721.92 282.282 1722.47 285.677 1723.28 289.807C1724.61 296.787 1724.74 297.235 1725.24 296.585Z" fill="#333333"/>
<path d="M1516.59 396.224L1526.43 381.57L1922.11 647.374L1912.26 662.029L1516.59 396.224Z" fill="#333333"/>
<path d="M1586.44 719.637L1571.79 709.792L1837.59 314.117L1852.25 323.962L1586.44 719.637Z" fill="#333333"/>
<path d="M1524.63 663.814C1518.55 665.008 1513.03 665.266 1508.07 664.588C1503.27 663.878 1499.39 662.301 1496.41 659.856C1493.44 657.412 1491.55 654.158 1490.75 650.093L1481.13 601.053L1498.9 597.563L1508.69 647.398C1509.09 649.43 1509.9 651.059 1511.14 652.284C1512.36 653.421 1513.92 654.17 1515.83 654.531C1517.89 654.86 1520.2 654.774 1522.76 654.271C1525.16 653.799 1527.17 653.037 1528.8 651.984C1530.58 650.9 1531.82 649.601 1532.52 648.087C1533.21 646.484 1533.35 644.667 1532.95 642.634L1502.43 487.164C1502.04 485.22 1501.23 483.635 1500 482.41C1498.76 481.185 1497.11 480.407 1495.05 480.078C1493.15 479.717 1490.99 479.772 1488.59 480.244C1486.03 480.747 1483.86 481.541 1482.07 482.625C1480.45 483.678 1479.3 485.005 1478.62 486.608C1477.93 488.21 1477.78 489.983 1478.16 491.927L1487.95 541.763L1470.17 545.253L1460.54 496.213C1459.76 492.236 1460.29 488.555 1462.12 485.167C1463.93 481.691 1466.92 478.718 1471.09 476.247C1475.42 473.744 1480.63 471.896 1486.72 470.701C1492.97 469.475 1498.49 469.217 1503.28 469.927C1508.08 470.637 1511.97 472.258 1514.97 474.791C1518.1 477.203 1520.06 480.398 1520.84 484.374L1551.05 638.255C1551.83 642.231 1551.24 645.973 1549.26 649.48C1547.43 652.868 1544.43 655.797 1540.26 658.268C1536.09 660.739 1530.88 662.587 1524.63 663.814ZM1518.09 566.953L1489.74 572.519L1487.92 563.241L1516.27 557.675L1518.09 566.953Z" fill="#333333"/>
<path d="M1910.51 587.089L1909.43 487.506L1873.2 395.785L1891.22 392.247L1922.66 479.952L1919.09 386.776L1937.11 383.239L1938.12 482.424L1974.42 574.543L1956.4 578.081L1925.2 490.329L1928.53 583.552L1910.51 587.089Z" fill="#333333"/>
<path d="M1729.06 742.584C1727.12 742.965 1725.34 742.862 1723.71 742.275C1722.11 741.649 1720.76 740.587 1719.66 739.09C1718.59 737.587 1717.83 735.672 1717.37 733.344L1715.42 723.4L1719.01 722.696L1720.98 732.736C1721.3 734.385 1721.82 735.744 1722.54 736.813C1723.24 737.849 1724.09 738.589 1725.09 739.032C1726.08 739.443 1727.18 739.527 1728.41 739.286C1729.64 739.045 1730.63 738.531 1731.38 737.746C1732.17 736.953 1732.68 735.947 1732.91 734.726C1733.16 733.467 1733.13 732.029 1732.82 730.412L1729.58 713.921C1729.06 711.27 1728.09 709.428 1726.68 708.395C1725.27 707.363 1723.51 707.053 1721.41 707.465L1718.6 708.018L1717.96 704.768L1720.72 704.225C1721.85 704.003 1722.81 703.564 1723.59 702.907C1724.39 702.212 1724.93 701.283 1725.21 700.121C1725.51 698.92 1725.5 697.495 1725.17 695.846L1722.28 681.101C1721.97 679.549 1721.51 678.297 1720.89 677.345C1720.26 676.36 1719.5 675.669 1718.61 675.272C1717.72 674.842 1716.73 674.735 1715.63 674.951C1714.5 675.173 1713.58 675.655 1712.89 676.395C1712.2 677.136 1711.74 678.081 1711.53 679.231C1711.35 680.374 1711.41 681.69 1711.7 683.177L1713.63 692.975L1710.04 693.679L1708.11 683.882C1707.7 681.78 1707.7 679.883 1708.11 678.191C1708.51 676.467 1709.28 675.038 1710.44 673.905C1711.59 672.772 1713.11 672.021 1714.98 671.653C1716.83 671.291 1718.49 671.4 1719.98 671.981C1721.47 672.561 1722.73 673.574 1723.75 675.018C1724.77 676.431 1725.49 678.22 1725.92 680.387L1728.72 694.695C1729.07 696.474 1729.15 698.054 1728.95 699.436C1728.74 700.786 1728.28 701.935 1727.56 702.882C1726.84 703.83 1725.88 704.521 1724.69 704.957L1724.71 705.054C1726.86 704.867 1728.68 705.517 1730.18 707.002C1731.71 708.448 1732.76 710.627 1733.33 713.537L1736.48 729.592C1736.93 731.887 1736.93 733.936 1736.48 735.738C1736.03 737.539 1735.16 739.035 1733.89 740.226C1732.64 741.411 1731.03 742.197 1729.06 742.584Z" fill="#333333"/>
<path d="M1758.67 736.772C1757.21 737.057 1755.85 737.056 1754.58 736.767C1753.35 736.472 1752.22 735.922 1751.19 735.117C1750.19 734.305 1749.34 733.23 1748.64 731.889C1747.94 730.549 1747.41 728.974 1747.06 727.163L1737.52 678.611C1737.08 676.348 1737.07 674.334 1737.5 672.572C1737.92 670.777 1738.72 669.309 1739.91 668.169C1741.12 666.991 1742.66 666.218 1744.54 665.85C1746.42 665.481 1748.12 665.617 1749.66 666.255C1751.19 666.862 1752.48 667.9 1753.54 669.371C1754.6 670.81 1755.34 672.628 1755.77 674.827L1757.48 683.509L1753.89 684.214L1752.16 675.435C1751.87 673.915 1751.38 672.65 1750.71 671.639C1750.05 670.629 1749.23 669.915 1748.28 669.498C1747.36 669.075 1746.34 668.971 1745.25 669.187C1743.98 669.434 1743.01 669.961 1742.33 670.766C1741.65 671.572 1741.21 672.582 1741.01 673.796C1740.85 675.004 1740.91 676.335 1741.19 677.79C1741.22 677.952 1741.26 678.114 1741.29 678.275C1741.31 678.405 1741.34 678.55 1741.37 678.712L1750.78 726.633C1751.14 728.444 1751.67 729.884 1752.39 730.953C1753.13 732.015 1754 732.752 1754.99 733.162C1755.97 733.541 1756.99 733.625 1758.06 733.415C1759.09 733.212 1759.98 732.753 1760.71 732.039C1761.47 731.285 1761.99 730.292 1762.29 729.058C1762.58 727.825 1762.56 726.319 1762.21 724.541L1757.42 700.144C1757.09 698.462 1756.56 697.123 1755.82 696.125C1755.12 695.088 1754.28 694.397 1753.3 694.051C1752.35 693.666 1751.36 693.576 1750.33 693.779C1749.1 694.02 1748.11 694.55 1747.36 695.368C1746.65 696.18 1746.18 697.196 1745.95 698.416C1745.72 699.637 1745.74 700.959 1746.02 702.381L1744.87 696.523C1744.98 695.729 1745.35 694.873 1745.79 694.015C1746.22 693.125 1746.84 692.348 1747.65 691.685C1748.45 690.99 1749.5 690.515 1750.79 690.262C1752.41 689.944 1753.91 690.069 1755.3 690.636C1756.68 691.171 1757.87 692.164 1758.86 693.615C1759.88 695.06 1760.61 696.914 1761.06 699.177L1765.87 723.672C1766.33 726.032 1766.34 728.129 1765.89 729.963C1765.45 731.797 1764.6 733.306 1763.36 734.491C1762.14 735.637 1760.57 736.397 1758.67 736.772Z" fill="#333333"/>
<path d="M1787.98 731.016C1786.07 731.391 1784.34 731.262 1782.77 730.629C1781.2 729.997 1779.88 728.945 1778.82 727.475C1777.79 725.997 1777.06 724.159 1776.63 721.961L1774.82 712.745L1778.46 712.031L1780.29 721.343C1780.59 722.863 1781.07 724.145 1781.75 725.187C1782.42 726.198 1783.23 726.928 1784.19 727.377C1785.15 727.794 1786.19 727.892 1787.32 727.669C1788.46 727.447 1789.38 726.963 1790.11 726.215C1790.83 725.436 1791.31 724.452 1791.55 723.264C1791.78 722.043 1791.74 720.673 1791.44 719.153L1786.6 694.465C1786.29 692.913 1785.81 691.632 1785.14 690.621C1784.47 689.611 1783.68 688.91 1782.76 688.519C1781.84 688.096 1780.84 687.989 1779.78 688.198C1778.13 688.522 1776.92 689.448 1776.14 690.977C1775.36 692.474 1775.19 694.321 1775.62 696.52C1775.78 697.361 1775.95 698.218 1776.12 699.091C1776.29 699.932 1776.45 700.772 1776.62 701.613L1773.12 702.299L1766.19 662.103L1782.49 658.903L1783.14 662.25L1770.15 664.802L1774.5 690.593L1774.65 690.565C1774.77 689.835 1775.05 689.077 1775.46 688.29C1775.87 687.47 1776.47 686.749 1777.25 686.124C1778.06 685.462 1779.07 685.013 1780.26 684.778C1781.88 684.461 1783.37 684.605 1784.73 685.211C1786.09 685.784 1787.24 686.783 1788.19 688.209C1789.14 689.634 1789.83 691.429 1790.26 693.596L1795.11 718.333C1795.54 720.531 1795.55 722.512 1795.12 724.275C1794.69 726.038 1793.87 727.508 1792.66 728.687C1791.45 729.865 1789.89 730.642 1787.98 731.016Z" fill="#333333"/>
<path d="M1699.64 519.276L1709.53 504.552L1724.25 514.445L1714.36 529.169L1699.64 519.276Z" fill="#333333"/>
<circle cx="1715.09" cy="522.636" r="407.5" transform="rotate(-11.1078 1715.09 522.636)" stroke="white" stroke-width="15"/>
<g opacity="0.15">
<rect x="1201.39" y="644.168" width="5.66236" height="377.491" transform="rotate(-53.7547 1201.39 644.168)" fill="white"/>
<rect x="1244.66" y="907.579" width="5.66236" height="377.491" transform="rotate(-143.755 1244.66 907.579)" fill="white"/>
<circle cx="1354.73" cy="754.242" r="153.827" transform="rotate(36.2453 1354.73 754.242)" stroke="white" stroke-width="5.66236"/>
</g>
<g opacity="0.3">
<rect x="1383.05" y="131.846" width="2.79603" height="186.402" transform="rotate(-53.7547 1383.05 131.846)" fill="white"/>
<rect x="1404.41" y="261.916" width="2.79603" height="186.402" transform="rotate(-143.755 1404.41 261.916)" fill="white"/>
<circle cx="1458.76" cy="186.199" r="75.9589" transform="rotate(36.2453 1458.76 186.199)" stroke="white" stroke-width="2.79603"/>
</g>
</g>
</svg>
