<svg width="315" height="314" viewBox="0 0 315 314" fill="none" xmlns="http://www.w3.org/2000/svg">
<rect x="0.992188" y="158.073" width="4.69525" height="313.017" transform="rotate(-90 0.992188 158.073)" fill="white"/>
<rect x="159.066" y="313.017" width="4.69525" height="313.017" transform="rotate(180 159.066 313.017)" fill="white"/>
<path d="M259.234 156.509C259.234 212.693 213.688 258.239 157.504 258.239C101.32 258.239 55.7734 212.693 55.7734 156.509C55.7734 100.324 101.32 54.7781 157.504 54.7781C213.688 54.7781 259.234 100.324 259.234 156.509Z" fill="white"/>
<path fill-rule="evenodd" clip-rule="evenodd" d="M150.187 76.4585C150.38 76.4465 150.755 76.5069 150.997 76.5673C151.263 76.6399 151.662 76.8937 152.423 77.6553L153.717 77.5344C154.442 77.4739 156.134 77.4135 157.5 77.4135C158.866 77.4135 160.558 77.4618 162.577 77.6553L162.964 77.2201C163.181 76.9904 163.605 76.7124 163.907 76.6036C164.282 76.4706 164.62 76.4344 164.995 76.4948C165.297 76.5311 166.167 76.7124 166.929 76.8816C167.69 77.0509 169.201 77.486 170.277 77.8487C171.365 78.2113 172.453 78.5981 172.695 78.7311C172.949 78.852 173.299 79.1179 173.481 79.3355C173.686 79.5531 173.867 79.9641 173.952 80.3509C174.073 80.9553 174.109 80.9916 174.822 81.3663C175.233 81.5839 176.007 82.0311 176.539 82.3454C177.47 82.9257 177.518 82.9377 177.893 82.7806C178.11 82.6839 178.521 82.6114 178.799 82.6114C179.114 82.6114 179.525 82.7202 179.827 82.8773C180.105 83.0345 180.842 83.6026 181.459 84.1466C182.075 84.6905 183.042 85.6576 183.61 86.2982C184.178 86.9389 184.976 87.9301 185.387 88.5103C185.798 89.0906 186.415 90.0818 186.741 90.7104C187.068 91.339 187.454 92.1609 187.599 92.5236C187.744 92.8862 187.986 93.7082 188.155 94.3368C188.325 95.0016 188.446 95.8478 188.446 96.3313C188.446 96.8028 188.361 97.4797 188.252 97.8423C188.143 98.205 187.902 98.7489 187.72 99.0511C187.527 99.3533 187.092 99.8731 186.729 100.2C186.378 100.538 185.81 100.997 185.484 101.227C185.146 101.457 184.336 101.892 183.671 102.206C183.006 102.52 181.954 102.956 180.214 103.584L179.899 103.342C179.73 103.209 179.537 102.931 179.464 102.738C179.38 102.448 179.404 102.315 179.573 102.085C179.718 101.916 180.238 101.65 180.951 101.396C181.58 101.167 182.595 100.743 183.187 100.441C183.78 100.151 184.602 99.6435 185 99.3292C185.399 99.0028 185.907 98.4709 186.125 98.1445C186.342 97.794 186.548 97.3105 186.596 96.9962C186.632 96.694 186.596 96.017 186.524 95.4852C186.451 94.9533 186.246 94.1071 186.064 93.6115C185.895 93.1159 185.581 92.3544 185.363 91.9192C185.146 91.484 184.589 90.5653 184.118 89.8642C183.647 89.1631 182.873 88.1598 182.377 87.6279C181.894 87.096 180.999 86.2015 180.407 85.6455C179.815 85.0894 179.21 84.5817 179.077 84.5213C178.944 84.4488 178.739 84.4246 178.618 84.4729C178.509 84.5092 178.231 84.9081 178.014 85.3674C177.784 85.8147 177.337 86.5883 177.01 87.084C176.684 87.5796 175.959 88.4741 175.39 89.0543C174.822 89.6466 174.121 90.2873 173.819 90.4807C173.517 90.6741 173.19 90.8313 173.094 90.8433C172.997 90.8433 172.767 90.7345 172.248 90.3477V85.5488C172.248 81.8498 172.211 80.6894 172.102 80.5443C172.018 80.4355 171.486 80.1696 170.918 79.9641C170.35 79.7465 169.262 79.3959 168.5 79.1663C167.739 78.9487 166.53 78.6344 165.817 78.4772C164.656 78.2355 164.499 78.2234 164.354 78.3805C164.257 78.4772 164.088 79.13 163.979 79.8311C163.858 80.5322 163.58 81.8136 163.363 82.6718C163.133 83.5301 162.758 84.8114 162.505 85.5125C162.263 86.2136 161.803 87.4103 161.465 88.1719C161.139 88.9334 160.51 90.2027 160.063 90.9884C159.616 91.7741 158.999 92.7653 158.673 93.1884C158.358 93.6236 157.972 94.0225 157.802 94.095C157.601 94.1756 157.399 94.1756 157.198 94.095C157.029 94.0225 156.642 93.6357 156.34 93.2247C156.037 92.8016 155.506 92.0038 155.179 91.4357C154.841 90.8675 154.345 89.973 154.079 89.4411C153.813 88.9093 153.414 88.051 153.197 87.5433C152.967 87.0235 152.786 86.4312 152.786 86.2378C152.786 85.9839 152.882 85.8026 153.112 85.6334C153.306 85.4883 153.559 85.3795 153.692 85.3916C153.825 85.3916 154.043 85.4641 154.176 85.5488C154.309 85.6455 154.526 85.9839 154.647 86.3103C154.768 86.6367 155.167 87.4949 155.53 88.2323C155.892 88.9697 156.461 90.0334 156.811 90.6137C157.162 91.1939 157.464 91.6774 157.5 91.6774C157.536 91.6774 157.935 91.0126 158.407 90.2027C158.878 89.3807 159.531 88.0631 159.869 87.2653C160.22 86.4675 160.691 85.2224 160.933 84.485C161.175 83.7476 161.538 82.5026 161.719 81.7048C161.912 80.9069 162.106 80.0729 162.142 79.8674C162.202 79.5289 162.178 79.4564 161.936 79.3959C161.791 79.3597 160.256 79.2992 158.528 79.263C156.799 79.2267 154.829 79.2509 154.164 79.2992C153.487 79.3597 152.882 79.4564 152.834 79.5047C152.774 79.5531 152.822 80.1333 152.943 80.774C153.148 81.8377 153.148 81.9707 152.979 82.2245C152.87 82.3696 152.604 82.5267 152.387 82.563C152.133 82.5993 151.903 82.563 151.722 82.4421C151.577 82.3333 151.396 82.0191 151.323 81.741C151.251 81.4509 151.081 80.6289 150.96 79.8916C150.827 79.1542 150.731 78.5256 150.731 78.4772C150.731 78.4168 150.634 78.3564 150.513 78.3201C150.404 78.2838 149.631 78.3926 148.797 78.5739C147.963 78.7432 146.391 79.1784 145.291 79.541C144.191 79.9036 143.224 80.2663 143.139 80.3509C143.019 80.4597 142.982 81.5355 142.994 85.3674C142.994 90.0697 142.982 90.2389 142.753 90.4686C142.62 90.6016 142.366 90.7466 142.172 90.7829C141.931 90.8313 141.725 90.7587 141.363 90.5049C141.097 90.3236 140.444 89.7312 139.912 89.1994C139.38 88.6675 138.643 87.773 138.268 87.2048C137.893 86.6367 137.41 85.8268 137.192 85.3916C136.975 84.9565 136.709 84.5092 136.6 84.3883C136.491 84.2674 136.37 84.1707 136.31 84.1828C136.261 84.1828 135.669 84.6663 134.98 85.2466C134.303 85.8389 133.348 86.7455 132.865 87.2774C132.381 87.7971 131.632 88.7279 131.209 89.3202C130.773 89.9126 130.096 91.0609 129.698 91.8587C129.299 92.6566 128.863 93.7687 128.706 94.3368C128.549 94.9533 128.44 95.7511 128.44 96.3434C128.428 97.2258 128.465 97.3709 128.791 97.9149C128.996 98.2412 129.492 98.7731 129.879 99.0874C130.278 99.4017 131.196 99.9577 131.934 100.32C132.659 100.683 133.832 101.167 134.533 101.408C135.234 101.65 136.564 102.025 137.494 102.254C138.425 102.484 139.972 102.811 140.939 102.98C141.906 103.149 143.538 103.391 144.566 103.524C145.593 103.657 147.503 103.85 148.797 103.971C150.658 104.14 152.508 104.176 157.621 104.176C162.783 104.176 164.584 104.14 166.566 103.971C167.932 103.85 169.939 103.645 171.039 103.512C172.139 103.367 173.468 103.185 174 103.089C174.532 102.992 175.112 102.919 175.294 102.919C175.519 102.919 175.713 103.032 175.874 103.258C176.019 103.439 176.128 103.693 176.128 103.826C176.128 103.959 176.031 104.201 175.91 104.358C175.717 104.6 175.451 104.672 173.94 104.926C172.973 105.083 171.184 105.325 169.951 105.458C168.718 105.591 166.953 105.748 166.022 105.808C165.091 105.881 162.783 106.002 160.885 106.074C157.911 106.207 156.872 106.195 153.269 106.014C150.973 105.905 148.253 105.736 147.225 105.639C146.198 105.542 144.53 105.349 143.538 105.204C142.535 105.071 140.988 104.829 140.093 104.66C139.199 104.491 137.724 104.176 136.829 103.947C135.935 103.717 134.557 103.318 133.771 103.052C132.998 102.774 131.801 102.279 131.112 101.94C130.435 101.602 129.552 101.094 129.154 100.804C128.755 100.526 128.162 100.006 127.848 99.6435C127.522 99.2808 127.111 98.6885 126.941 98.3259C126.7 97.8302 126.603 97.4313 126.567 96.7544C126.543 96.1984 126.615 95.4489 126.736 94.8203C126.857 94.2522 127.074 93.4423 127.219 93.0071C127.377 92.5719 127.643 91.9071 127.812 91.5324C127.981 91.1455 128.416 90.3598 128.767 89.7796C129.105 89.1873 129.71 88.3048 130.084 87.8092C130.459 87.3136 131.245 86.3949 131.825 85.7664C132.417 85.1378 133.36 84.2433 133.928 83.7597C134.496 83.2762 135.137 82.8048 135.343 82.696C135.572 82.5751 136.02 82.4905 136.37 82.4905C136.721 82.5026 137.144 82.5751 137.313 82.6597C137.591 82.8048 137.676 82.7806 138.341 82.3817C138.739 82.1278 139.537 81.6806 140.117 81.3663C140.964 80.9069 141.181 80.7377 141.181 80.5322C141.181 80.3751 141.29 80.0366 141.411 79.7707C141.52 79.5047 141.786 79.1542 141.979 78.9849C142.172 78.8157 142.789 78.5014 143.357 78.2717C143.925 78.0542 145.037 77.6915 145.835 77.4618C146.633 77.2322 147.854 76.9179 148.555 76.7607C149.256 76.5915 149.981 76.4585 150.187 76.4585ZM139.211 83.9531L138.643 84.3037C139.235 85.3795 139.598 85.9718 139.839 86.2982C140.069 86.6367 140.468 87.1323 140.722 87.4224L141.181 87.9301C141.181 83.9894 141.169 82.8531 141.145 82.8531C141.133 82.8531 140.819 83.0224 140.456 83.2279C140.093 83.4334 139.537 83.7597 139.211 83.9531ZM174.254 87.6884C174.363 87.5917 174.689 87.2048 174.967 86.8422C175.245 86.4795 175.705 85.8026 175.971 85.3312C176.249 84.8597 176.442 84.4487 176.394 84.4004C176.333 84.352 175.838 84.0378 175.27 83.6993C174.701 83.3608 174.206 83.0949 174.157 83.0949C174.097 83.0949 174.061 84.1707 174.061 85.4883C174.049 87.7125 174.061 87.8576 174.254 87.6884Z" fill="#333333"/>
<path d="M104.156 105.71L108.063 101.802L213.567 207.306L209.659 211.214L104.156 105.71Z" fill="#333333"/>
<path d="M106.11 209.26L102.202 205.352L207.706 99.8486L211.613 103.756L106.11 209.26Z" fill="#333333"/>
<path d="M90.4908 188.386C88.5494 188.386 86.838 188.132 85.3564 187.625C83.926 187.118 82.8276 186.399 82.0613 185.469C81.295 184.539 80.9118 183.425 80.9118 182.129V166.485H86.5826V182.382C86.5826 183.031 86.7358 183.58 87.0423 184.031C87.3489 184.454 87.7831 184.778 88.3451 185.004C88.9581 185.229 89.6734 185.342 90.4908 185.342C91.2571 185.342 91.9212 185.229 92.4832 185.004C93.0962 184.778 93.556 184.454 93.8625 184.031C94.1691 183.58 94.3223 183.031 94.3223 182.382V132.788C94.3223 132.168 94.1691 131.633 93.8625 131.182C93.556 130.731 93.0962 130.392 92.4832 130.167C91.9212 129.941 91.2571 129.829 90.4908 129.829C89.6734 129.829 88.9581 129.941 88.3451 130.167C87.7831 130.392 87.3489 130.731 87.0423 131.182C86.7358 131.633 86.5826 132.168 86.5826 132.788V148.685H80.9118V133.042C80.9118 131.774 81.295 130.674 82.0613 129.744C82.8276 128.786 83.926 128.053 85.3564 127.546C86.838 127.038 88.5494 126.785 90.4908 126.785C92.4832 126.785 94.1946 127.038 95.6251 127.546C97.0555 128.053 98.1539 128.786 98.9202 129.744C99.7376 130.674 100.146 131.774 100.146 133.042V182.129C100.146 183.397 99.7376 184.51 98.9202 185.469C98.1539 186.399 97.0555 187.118 95.6251 187.625C94.1946 188.132 92.4832 188.386 90.4908 188.386ZM94.3223 158.241H85.2798V155.281H94.3223V158.241Z" fill="#333333"/>
<path d="M213.642 188.09L219.313 157.437L213.719 127.081H219.466L223.834 155.915L228.355 127.081H234.103L228.432 157.606L234.026 188.09H228.279L223.987 159.255L219.389 188.09H213.642Z" fill="#333333"/>
<path d="M148.531 224.908C147.912 224.908 147.37 224.769 146.906 224.491C146.452 224.202 146.101 223.794 145.854 223.268C145.617 222.742 145.498 222.108 145.498 221.365V218.194H146.643V221.396C146.643 221.922 146.72 222.371 146.875 222.742C147.03 223.103 147.246 223.382 147.525 223.578C147.803 223.764 148.139 223.856 148.531 223.856C148.923 223.856 149.258 223.758 149.536 223.562C149.825 223.366 150.042 223.088 150.186 222.727C150.341 222.356 150.418 221.912 150.418 221.396V216.136C150.418 215.29 150.232 214.666 149.861 214.264C149.49 213.861 148.969 213.66 148.298 213.66H147.401V212.624H148.283C148.644 212.624 148.964 212.546 149.242 212.391C149.531 212.226 149.753 211.974 149.908 211.633C150.073 211.283 150.155 210.844 150.155 210.318V205.615C150.155 205.12 150.088 204.707 149.954 204.377C149.82 204.036 149.629 203.779 149.382 203.603C149.134 203.418 148.835 203.325 148.484 203.325C148.123 203.325 147.814 203.418 147.556 203.603C147.298 203.789 147.102 204.052 146.968 204.392C146.844 204.733 146.782 205.14 146.782 205.615V208.74H145.637V205.615C145.637 204.944 145.751 204.361 145.978 203.866C146.205 203.361 146.529 202.969 146.952 202.69C147.375 202.412 147.886 202.273 148.484 202.273C149.072 202.273 149.578 202.407 150 202.675C150.423 202.943 150.748 203.33 150.975 203.835C151.202 204.33 151.316 204.924 151.316 205.615V210.179C151.316 210.746 151.243 211.236 151.099 211.649C150.955 212.051 150.743 212.376 150.465 212.624C150.186 212.871 149.851 213.026 149.459 213.088V213.119C150.129 213.191 150.65 213.5 151.022 214.047C151.403 214.583 151.594 215.316 151.594 216.244V221.365C151.594 222.098 151.47 222.727 151.223 223.253C150.975 223.779 150.619 224.186 150.155 224.475C149.701 224.764 149.16 224.908 148.531 224.908Z" fill="#333333"/>
<path d="M157.975 224.908C157.511 224.908 157.093 224.826 156.722 224.661C156.36 224.496 156.046 224.259 155.778 223.949C155.52 223.64 155.324 223.258 155.19 222.804C155.056 222.35 154.989 221.835 154.989 221.257V205.769C154.989 205.047 155.107 204.428 155.344 203.913C155.582 203.387 155.917 202.984 156.35 202.706C156.794 202.417 157.315 202.273 157.913 202.273C158.511 202.273 159.027 202.417 159.46 202.706C159.893 202.984 160.229 203.382 160.466 203.897C160.703 204.403 160.822 205.006 160.822 205.708V208.477H159.677V205.677C159.677 205.192 159.604 204.774 159.46 204.423C159.316 204.073 159.109 203.804 158.841 203.619C158.583 203.433 158.279 203.34 157.928 203.34C157.526 203.34 157.196 203.443 156.938 203.65C156.68 203.856 156.484 204.14 156.35 204.501C156.226 204.862 156.165 205.274 156.165 205.738C156.165 205.79 156.165 205.842 156.165 205.893C156.165 205.934 156.165 205.981 156.165 206.032V221.319C156.165 221.897 156.242 222.371 156.397 222.742C156.562 223.114 156.783 223.392 157.062 223.578C157.34 223.753 157.65 223.841 157.99 223.841C158.32 223.841 158.619 223.753 158.888 223.578C159.166 223.392 159.388 223.119 159.553 222.758C159.718 222.397 159.8 221.933 159.8 221.365V213.583C159.8 213.046 159.718 212.603 159.553 212.252C159.398 211.891 159.182 211.628 158.903 211.463C158.635 211.288 158.336 211.2 158.006 211.2C157.614 211.2 157.279 211.303 157 211.51C156.732 211.716 156.526 212 156.381 212.361C156.237 212.722 156.165 213.129 156.165 213.583V211.714C156.247 211.477 156.412 211.236 156.598 210.999C156.783 210.751 157.021 210.55 157.309 210.396C157.598 210.231 157.949 210.148 158.362 210.148C158.877 210.148 159.331 210.277 159.723 210.535C160.115 210.782 160.419 211.159 160.636 211.664C160.863 212.17 160.976 212.783 160.976 213.505V221.319C160.976 222.072 160.853 222.717 160.605 223.253C160.357 223.789 160.007 224.202 159.553 224.491C159.109 224.769 158.583 224.908 157.975 224.908Z" fill="#333333"/>
<path d="M167.326 224.908C166.718 224.908 166.192 224.764 165.748 224.475C165.304 224.186 164.964 223.784 164.727 223.268C164.5 222.753 164.386 222.144 164.386 221.443V218.503H165.547V221.474C165.547 221.958 165.619 222.381 165.763 222.742C165.908 223.093 166.114 223.366 166.382 223.562C166.651 223.748 166.965 223.841 167.326 223.841C167.687 223.841 168.002 223.748 168.27 223.562C168.538 223.366 168.744 223.093 168.889 222.742C169.033 222.381 169.105 221.958 169.105 221.474V213.598C169.105 213.103 169.033 212.68 168.889 212.33C168.744 211.979 168.543 211.716 168.285 211.54C168.028 211.355 167.728 211.262 167.388 211.262C166.862 211.262 166.434 211.473 166.104 211.896C165.774 212.309 165.609 212.866 165.609 213.567C165.609 213.836 165.609 214.109 165.609 214.387C165.609 214.656 165.609 214.924 165.609 215.192H164.495L164.789 202.427H169.987V203.495H165.841L165.624 211.68H165.671C165.753 211.463 165.882 211.247 166.057 211.03C166.233 210.803 166.46 210.617 166.738 210.473C167.027 210.318 167.362 210.241 167.744 210.241C168.26 210.241 168.708 210.375 169.09 210.643C169.472 210.901 169.766 211.277 169.972 211.773C170.178 212.268 170.281 212.861 170.281 213.552V221.443C170.281 222.144 170.163 222.753 169.925 223.268C169.688 223.784 169.348 224.186 168.904 224.475C168.461 224.764 167.935 224.908 167.326 224.908Z" fill="#333333"/>
<path d="M152.96 154.544L156.886 150.618L160.812 154.545L156.886 158.471L152.96 154.544Z" fill="#333333"/>
<circle cx="157.504" cy="156.508" r="127.554" stroke="white" stroke-width="4.69525"/>
</svg>
